<svg width="397" height="354" viewBox="0 0 397 354" fill="none" xmlns="http://www.w3.org/2000/svg">
<rect x="5" y="13" width="374" height="231" rx="5" fill="#E0EDF8"/>
<path d="M0 116L125 1H96.7742L0 97V116Z" fill="url(#paint0_linear_749_1803)" fill-opacity="0.5"/>
<path d="M0 188.5L244.5 0H141L0 130.844V188.5Z" fill="url(#paint1_linear_749_1803)" fill-opacity="0.5"/>
<path d="M229.199 282L381 175.774V143L197 282H229.199Z" fill="url(#paint2_linear_749_1803)" fill-opacity="0.5"/>
<path d="M13.8522 241.555C18.125 237.536 23.9416 234.736 30.4132 233.582L52.8176 229.587C58.5424 228.566 64.5181 228.881 70.0218 230.494L85.3621 234.988C91.5173 236.791 98.2442 236.967 104.536 235.488L125.762 230.5C132.048 229.022 138.822 230.91 142.555 235.181C146.184 239.333 152.702 241.246 158.87 239.968L189.125 233.7C194.881 232.508 200.952 232.681 206.584 234.197L240.128 243.23C242.671 243.914 245.317 244.329 247.997 244.462L287.568 246.433C292.243 246.666 296.923 246.039 301.242 244.601L333.827 233.752C337.552 232.511 341.553 231.872 345.595 231.872H348.523C357.16 231.872 365.39 234.786 371.151 239.884L374.862 243.167C379.945 247.666 380.86 254.896 380.689 261.682L380.056 286.789C380.019 288.246 379.492 289.546 378.141 290.091C374.699 291.48 368.354 293.084 375.887 289.06C375.956 289.023 376.041 289 376.121 289C376.62 289 376.863 289.782 376.506 290.131C372.583 293.963 372.019 301.774 375.492 288.919C375.719 288.078 376.776 287.776 377.392 288.392C377.457 288.457 377.479 288.549 377.444 288.634C377.117 289.428 375.613 293.22 374.961 296.932C374.616 298.893 375.334 298.753 375.264 296.763L374.943 287.615C374.884 287.188 374.67 286.784 374.328 286.45L363.215 275.616C361.922 274.355 359.735 273.918 357.842 274.543C356.42 275.012 355.386 276.011 355.083 277.207L342.765 325.888C342.56 326.698 341.088 326.677 340.921 325.861L336.019 301.953C335.159 297.76 327.523 297.814 326.758 302.018C326.694 302.366 326.11 302.455 325.888 302.15L310.616 281.181C308.017 277.613 301.298 278.214 299.769 282.151C299.614 282.549 299.527 282.962 299.509 283.379L297.993 319.073C297.97 319.62 296.996 319.716 296.803 319.191L287.825 294.752C285.78 289.185 281.266 284.39 275.113 281.25L270.846 279.073C269.708 278.492 268.205 278.664 267.32 279.476C263.963 282.558 261.779 286.332 261.023 290.359L253.398 330.974C253.383 331.055 253.315 331.123 253.219 331.153C251.408 331.727 249.413 330.751 249.251 329.211L245.082 289.698C245.043 289.325 244.867 288.969 244.575 288.674L234.284 278.27C226.241 270.138 209.932 272.748 206.505 282.716L206.152 283.743C206.072 283.976 205.741 284.093 205.468 283.985C202.65 282.869 199.257 284.146 198.569 286.581L180.059 352.12C179.362 354.587 174.947 354.641 174.154 352.192L167.297 331.028C165.246 324.698 160.031 319.301 152.853 316.078L142.262 311.325C141.65 311.05 141.194 310.601 140.988 310.068L131.266 285.04C129.497 280.487 122.219 279.095 118.022 282.506L112.902 286.667C111.451 287.846 108.957 287.495 108.109 285.992L108.051 285.889C107.338 284.626 105.362 284.173 103.908 284.941C102.658 285.601 100.974 285.37 100.077 284.415L88.0183 271.569C86.6753 270.138 83.8092 270.818 83.6788 272.598L83.2504 278.45C82.825 284.259 74.3271 284.338 73.7945 278.537C73.1334 271.336 63.2224 267.139 55.2956 270.704C51.3173 272.493 48.9048 275.871 49.0184 279.494C49.1174 282.65 44.5312 283.152 43.9447 280.05L42.2398 271.03C41.8071 268.741 39.9292 266.785 37.2599 265.843C31.5056 263.813 25.0482 267.238 25.2264 272.225L25.5501 281.284C25.5978 282.622 23.3153 283.073 22.564 281.875L4.31699 252.771C3.77911 251.913 3.93505 250.884 4.71399 250.151L13.8522 241.555Z" fill="#98C4E7"/>
<path d="M14.8522 235.555C19.125 231.536 24.9417 228.736 31.4132 227.582L53.8176 223.587C59.5424 222.566 65.5181 222.881 71.0218 224.494L86.3621 228.988C92.5173 230.791 99.2443 230.967 105.536 229.488L126.762 224.5C133.048 223.022 139.822 224.91 143.555 229.181C147.184 233.333 153.702 235.246 159.87 233.968L190.125 227.7C195.881 226.508 201.952 226.681 207.584 228.197L241.128 237.23C243.671 237.914 246.317 238.329 248.997 238.462L288.568 240.433C293.244 240.666 297.924 240.039 302.242 238.601L334.827 227.752C338.553 226.511 342.553 225.872 346.595 225.872H349.523C358.16 225.872 366.39 228.786 372.151 233.884L375.862 237.167C380.962 241.681 382.091 248.872 382.368 255.677L383.424 281.633C383.474 282.867 383.338 284.219 382.103 284.218C378.878 284.217 371.094 282.23 367.546 280.782C366.582 280.388 366.213 279.335 366.531 278.343C369.707 268.423 365.947 256.631 355.531 256.583C352.083 256.567 348.604 257.142 345.343 258.34C340.051 260.283 334.046 260.627 328.457 259.307L291.889 250.671C284.021 248.812 275.538 249.557 268.373 252.735L225.482 271.761C223.945 272.443 222 271.948 221.25 270.685L215.84 261.57C208.937 249.939 191.711 244.661 176.723 249.584L144.664 260.115C137.315 262.529 129.065 262.562 121.685 260.208L96.7975 252.269C91.5107 250.582 85.7315 250.108 80.1205 250.901L37.2912 256.951C27.3763 258.351 17.2298 255.767 10.203 250.052L6.35058 246.919C5.26123 246.033 5.1975 244.637 6.20323 243.691L14.8522 235.555Z" fill="#E0EDF8"/>
<path d="M14.8522 235.555C19.125 231.536 24.9417 228.736 31.4132 227.582L53.8176 223.587C59.5424 222.566 65.5181 222.881 71.0218 224.494L86.3621 228.988C92.5173 230.791 99.2443 230.967 105.536 229.488L126.762 224.5C133.048 223.022 139.822 224.91 143.555 229.181C147.184 233.333 153.702 235.246 159.87 233.968L190.125 227.7C195.881 226.508 201.952 226.681 207.584 228.197L241.128 237.23C243.671 237.914 246.317 238.329 248.997 238.462L288.568 240.433C293.244 240.666 297.924 240.039 302.242 238.601L334.827 227.752C338.553 226.511 342.553 225.872 346.595 225.872H349.523C358.16 225.872 366.39 228.786 372.151 233.884L375.862 237.167C380.965 241.683 382.132 248.866 382.488 255.671L383.905 282.695C383.968 283.889 384.183 285.086 384.248 286.279C384.461 290.138 383.699 299.825 375.359 312.505C374.697 313.511 373.248 313.56 372.496 312.62C372.18 312.225 372.046 311.698 372.123 311.198C374.975 292.646 374.093 297.755 373.5 297.461C366.514 293.995 372.422 285.643 368.285 291.29L368.118 291.517C367.411 292.482 365.564 292.202 365.356 291.098L362.706 276.975C361.913 272.748 355.759 270.679 351.369 273.163C349.4 274.277 346.857 274.536 344.596 273.851L329.612 269.315C326.15 268.267 322.476 267.73 318.77 267.73H316.238C303.819 267.73 292.652 273.719 288.04 282.852L280.663 297.461C280.29 298.199 278.961 298.172 278.636 297.421L275.497 290.166C273.565 285.701 265.802 285.277 263.115 289.491C262.918 289.801 262.404 289.881 262.072 289.652L258.586 287.249C254.257 284.266 247.813 284.27 243.49 287.258L243.287 287.398C242.946 287.634 242.433 287.62 242.113 287.367C238.065 284.16 231.265 284.922 228.498 288.892L226.977 291.075C226.552 291.685 225.439 291.67 225.039 291.049L205.952 261.383C205.94 261.364 205.93 261.345 205.924 261.326C204.874 258.348 199.56 258.315 198.452 261.279L180.739 308.668C180.372 309.649 178.597 309.598 178.321 308.599L175.73 299.242C173.394 290.808 158.136 290.979 156.102 299.462C155.921 300.22 154.618 300.347 154.209 299.647L142.177 279.066C138.019 271.954 127.239 268.999 118.421 272.552C117.73 272.831 116.889 272.715 116.358 272.267L103.897 261.766C99.4485 258.018 92.0068 257.834 87.2716 261.355L84.8216 263.177C82.526 264.884 79.0961 265.21 76.355 263.983L74.6089 263.201C72.2893 262.163 69.3503 262.729 67.8911 264.495L66.7267 265.904C65.7937 267.033 63.8639 267.323 62.4738 266.543C60.4829 265.426 57.73 266.553 57.73 268.486V269.95C57.73 272.349 54.4713 273.861 51.8302 272.688L24.276 260.45C22.3939 259.615 20.6737 258.568 19.1683 257.344L6.35058 246.919C5.26123 246.033 5.1975 244.637 6.20323 243.691L14.8522 235.555Z" fill="#D1E6F7"/>
<defs>
<linearGradient id="paint0_linear_749_1803" x1="37.5" y1="73.5" x2="125" y2="-11" gradientUnits="userSpaceOnUse">
<stop stop-color="white"/>
<stop offset="0.540476" stop-color="white" stop-opacity="0.567708"/>
<stop offset="1" stop-color="white" stop-opacity="0"/>
</linearGradient>
<linearGradient id="paint1_linear_749_1803" x1="63.5" y1="111" x2="154.5" y2="20.5" gradientUnits="userSpaceOnUse">
<stop offset="0.28125" stop-color="white" stop-opacity="0.8"/>
<stop offset="0.416667" stop-color="white" stop-opacity="0.583333"/>
<stop offset="1" stop-color="white" stop-opacity="0"/>
</linearGradient>
<linearGradient id="paint2_linear_749_1803" x1="221.14" y1="289.371" x2="369.051" y2="162.212" gradientUnits="userSpaceOnUse">
<stop stop-color="white"/>
<stop offset="0.479167" stop-color="white" stop-opacity="0.49296"/>
<stop offset="0.5" stop-color="white" stop-opacity="0.482172"/>
<stop offset="0.965572" stop-color="white" stop-opacity="0"/>
</linearGradient>
</defs>
</svg>
