<svg width="127" height="79" viewBox="0 0 127 79" fill="none" xmlns="http://www.w3.org/2000/svg">
<path d="M24.5231 32.3851H18.009L31.0372 78.5869L50.4589 74.0029C94.6582 78.4422 118.817 71.4295 125.371 67.3682C126.738 62.9853 127.591 49.756 120.063 31.9026C112.536 14.0492 95.4543 4.9214 87.8546 2.5892C78.6464 0.699307 57.552 -1.05387 46.8399 7.05256C35.4523 11.5883 27.2172 25.8308 24.5231 32.3851Z" fill="#F0F5FF"/>
<path d="M1 70.7456L7.99662 72.4344C7.31304 63.4675 7.73123 45.5337 14.8726 45.5337C22.014 45.5337 22.6734 65.9606 22.1105 76.174L31.0372 78.5866C31.8816 71.7911 32.3159 55.1842 27.2976 43.121C22.2794 31.0579 15.5562 31.1785 12.8219 32.7467C9.8463 34.2747 3.67802 38.4888 2.80947 43.121C2.03743 43.0245 1.28147 61.4972 1 70.7456Z" fill="#EEF5FF"/>
<path d="M13.9627 45.4281C21.1522 44.8442 22.4161 61.4049 22.211 69.8798L8.05353 72.4345C8.54597 71.0964 4.97585 46.158 13.9627 45.4281Z" fill="#BDCEE6"/>
<path d="M37.4307 33.1091L18.009 32.2646C20.7433 33.3503 25.3675 37.5724 27.7802 44.4484C30.1928 51.3244 32.7261 70.0223 30.9166 78.4664L49.9763 74.2444C50.2176 65.8002 49.6627 47.609 46.9606 42.3977C44.2584 37.1864 39.1195 34.436 37.4307 33.1091Z" fill="#D4DDEE"/>
<path d="M54.8016 3.19219C59.8388 2.58758 75.5546 1.81855 88.1237 3.26961M38.3957 12.8427C50.9888 11.2304 83.6401 8.85258 105.708 12.7221M30.6753 21.2869C43.7481 20.118 78.6489 18.4815 113.67 21.2869" stroke="black" stroke-width="0.5"/>
<path d="M24.0405 32.3849C48.9308 31.7415 103.078 30.7201 120.063 32.2642" stroke="black" stroke-width="0.5"/>
<path d="M48.4082 46.7401C51.1018 46.7989 54.6856 46.9447 58.0606 46.9755M124.044 42.8799C123.786 42.9767 122.667 43.289 122.372 43.3814M49.8558 60.9746C51.6243 61.2457 54.5432 61.6113 57.0955 61.847M126.095 56.5112C125.412 56.6868 123.885 57.0755 123.202 57.2417M57.0955 61.847V74.8472M57.0955 61.847C63.0819 62.3998 71.0439 62.7726 80.1361 62.579M80.1361 62.579V75.6916M80.1361 62.579C83.953 62.4977 87.969 62.3166 92.1217 62.0071M101.005 61.1605V74.4853M101.005 61.1605C103.944 60.8178 106.927 60.4062 109.932 59.9167M101.005 61.1605C97.9917 61.5119 95.0233 61.7908 92.1217 62.0071M117.411 58.54V71.1076M122.372 43.3814L123.202 57.2417M122.372 43.3814C119.594 44.2531 115.236 44.9296 109.932 45.4491M123.202 57.2417C118.77 58.3188 114.326 59.201 109.932 59.9167M109.932 45.4491V59.9167M109.932 45.4491C104.471 45.984 98.0079 46.3526 91.2342 46.5967M91.2342 46.5967L92.1217 62.0071M91.2342 46.5967C83.7009 46.8683 75.7837 46.9859 68.4349 47.0074M68.4349 47.0074V62.5257M68.4349 47.0074C64.7993 47.018 61.3027 47.005 58.0606 46.9755M59.1444 31.5405C58.501 35.4527 57.2886 44.4804 58.0606 46.9755" stroke="black" stroke-width="0.5"/>
<path d="M79.171 31.5174L80.8579 46.8611M98.1101 31.5174L101.245 46.1373M113.066 31.7822L117.773 44.3043M113.068 21.3844L117.892 32.0234M101.488 20.54L106.554 31.5174M87.0101 19.8397L89.5453 31.5174M69.5205 19.719V31.5174M52.6302 19.9603L50.0969 31.7822M38.7576 20.6841L34.5355 32.0234M51.4258 11.4926L46.1161 20.3222M39.9639 12.6018L31.8816 21.1666M63.3664 10.7923L61.0763 19.6956M76.8771 10.551L78.8072 19.719M89.9053 10.9129L93.888 20.1781M101.727 12.1193L107.156 20.9253M87.8564 3.16907L95.9368 11.3955M78.8072 2.58938L83.3912 10.6717M71.2074 2.46875L70.4836 10.6717M62.4032 2.80717L56.7335 11.0101M55.7666 3.19254L45.8748 11.9986" stroke="black" stroke-width="0.5"/>
<path d="M21.8616 76.043L30.8016 78.5445M30.8016 78.5445L49.9819 74.3224C50.5851 64.873 49.3656 46.3677 47.2074 42.8376C44.9022 38.0442 39.9695 34.3935 37.3157 33.1871L17.4115 32.2221M30.8016 78.5445C33.0936 72.6336 30.8016 52.1263 27.062 42.8376C24.0703 35.4068 19.3818 32.6644 17.4115 32.2221M17.4115 32.2221C10.4149 31.257 3.76695 39.733 2.81509 42.8376C1.71622 44.6789 0.925202 61.8974 1.00562 70.7035L8.12287 72.513L22.1029 69.7702" stroke="black" stroke-width="0.5"/>
<path d="M8.0022 72.392C7.35883 63.6664 7.5438 46.0944 13.4306 45.6119C20.7891 45.0087 22.8398 56.8306 21.8748 76.1316" stroke="black" stroke-width="0.5"/>
<path d="M1.24683 63.3448L7.88155 64.7924L21.9898 62.6632M22.1029 68.3225L31.7666 69.8589L50.2175 66.4027M21.741 58.9132L30.6809 60.6909L49.8481 57.8276M20.1728 51.3135L27.0619 44.1644L46.8398 42.1558M16.2051 45.9739L18.7327 32.7466M9.68539 34.5561L11.8568 46.2573M3.1713 42.0352L9.57039 50.0754M1.24683 55.3832L7.88155 56.7101L21.0304 54.5387" stroke="black" stroke-width="0.5"/>
<path d="M50.0969 74.0029C69.1566 76.0135 110.654 77.6243 125.612 67.0087C129.11 45.1745 118.615 16.7055 92.6797 4.0392C67.6849 -2.61965 51.464 3.2752 46.4779 7.05498C42.0146 9.10571 31.3025 17.0191 24.1611 32.2669" stroke="black" stroke-width="0.5"/>
</svg>
