<svg width="556" height="111" viewBox="0 0 556 111" fill="none" xmlns="http://www.w3.org/2000/svg">
<path d="M38.278 43.8044C39.4318 43.3716 40.6424 43.1073 41.8722 43.0198L93.4456 39.3519C94.2452 39.2951 95.0484 39.3133 95.8445 39.4063L137.454 44.2688C138.345 44.373 139.246 44.3833 140.14 44.2995L190.42 39.5859C192.653 39.3766 194.901 39.7562 196.94 40.6866L207.114 45.3297C209.109 46.2402 211.305 46.6235 213.492 46.4428L274.458 41.405C275.265 41.3382 276.078 41.3482 276.884 41.4347L336.753 47.8649L403.107 49.1831C403.756 49.196 404.406 49.1595 405.05 49.074L463.551 41.3046H491.39C492.844 41.3046 494.287 41.5518 495.658 42.0355L513.497 48.3321C515.124 48.9064 516.617 49.8031 517.887 50.9681L537.587 69.0456C538.294 69.6949 538.055 70.8609 537.148 71.1811L529.115 74.018C528.95 74.0762 528.798 74.1676 528.67 74.2864L516.25 85.8142C516.115 85.9396 515.895 85.8853 515.834 85.7115L510.714 71.0302C510.591 70.6784 510.32 70.3978 509.971 70.2624L494.594 64.2825C493.008 63.6657 491.291 63.4588 489.602 63.681C486.635 64.0717 483.994 65.755 482.395 68.2758L467.771 91.3278C467.242 92.1611 466.004 92.1054 465.553 91.228L458.792 78.0748C456.234 73.0989 449.038 73.2654 446.715 78.3544C446.554 78.7085 446.124 78.8507 445.781 78.6633L421.069 65.1293C418.18 63.5473 414.586 64.0846 412.291 66.4414C411.152 67.611 410.44 69.1271 410.267 70.7474L408.376 88.5132C408.352 88.7312 408.082 88.82 407.933 88.6584L393.578 73.0702C391.758 71.094 389.358 69.7409 386.72 69.204L370.169 65.835C369.936 65.7876 369.695 65.8058 369.472 65.8874L365.873 67.2054C362.715 68.3621 360.142 70.7132 358.713 73.7481L349.379 93.5803C349.299 93.7489 349.139 93.8652 348.953 93.8886C346.24 94.2316 343.691 92.5188 342.994 89.8839L338.327 72.2386C338.224 71.8507 337.944 71.5336 337.571 71.3831L306.558 58.8764C301.473 56.8256 295.641 58.2371 292.068 62.3834L286.794 68.503C286.522 68.8186 286.105 68.9712 285.692 68.906C281.163 68.1904 276.618 70.1021 273.975 73.8355L249.231 108.78C248.742 109.47 247.726 109.504 247.193 108.847L233.71 92.2477C231.78 89.8719 229.057 88.267 226.037 87.7263L200.885 83.2231C200.622 83.176 200.38 83.0478 200.194 82.8566L187.483 69.8041C184.087 66.317 178.995 65.0597 174.357 66.5633L161.391 70.7668C159.731 71.305 157.913 71.0289 156.489 70.0223C155.233 69.134 153.661 68.8093 152.154 69.1268L150.653 69.4431C148.839 69.825 146.952 69.6413 145.247 68.9169L125.953 60.7188C125.199 60.3986 124.342 60.8577 124.195 61.6606L118.946 90.256C118.696 91.6165 116.754 91.6596 116.444 90.3115L111.684 69.6341C110.159 63.0105 103.679 58.7483 96.965 59.9527L89.0908 61.3652C82.632 62.5238 78.1046 68.3677 78.617 74.8846L78.7832 76.9984C78.8941 78.4081 76.9599 78.9197 76.3539 77.6411L70.9035 66.1399C69.1152 62.3663 65.5403 59.7423 61.3921 59.1585L57.4665 58.606C51.5366 57.7714 46.3729 62.657 46.9052 68.5985C46.9738 69.3645 46.1293 69.8752 45.4786 69.4613L19.5901 52.9907C18.7034 52.4265 18.8429 51.0965 19.8275 50.7271L38.278 43.8044Z" fill="#98C4E7"/>
<path d="M38.2774 43.8066C39.4315 43.3734 40.6426 43.1089 41.8728 43.0213L93.4451 39.352C94.245 39.295 95.0485 39.3133 95.845 39.4064L137.453 44.2708C138.345 44.3751 139.246 44.3854 140.14 44.3016L190.419 39.5861C192.652 39.3767 194.902 39.7566 196.941 40.6877L207.112 45.3318C209.108 46.243 211.306 46.6266 213.494 46.4458L274.457 41.4059C275.265 41.3391 276.078 41.3491 276.884 41.4357L336.753 47.8686L403.106 49.1873C403.756 49.2003 404.406 49.1637 405.051 49.0781L463.55 41.3054H491.389C492.844 41.3054 494.287 41.5528 495.658 42.0369L513.497 48.3359C515.124 48.9105 516.617 49.8076 517.887 50.9731L537.588 69.0593C538.295 69.7086 538.055 70.8743 537.149 71.1946L529.196 74.0042C528.979 74.0809 528.745 74.0977 528.52 74.053L515.071 71.3903C512.131 70.8082 509.079 71.2741 506.449 72.7064L498.61 76.976C497.964 77.3282 497.153 77.064 496.84 76.3992L495.128 72.7587C492.581 67.3416 486.589 64.4227 480.732 65.7451L475.994 66.8151C474.563 67.1381 473.087 67.2133 471.63 67.0374L442.182 63.4801H408.536C405.652 63.4801 402.853 64.4516 400.594 66.2368L383.573 79.6876C383.079 80.0779 382.373 80.051 381.91 79.6244L377.604 75.6523C373.364 71.7416 367.017 71.1519 362.124 74.2142L360.815 75.0335C360.511 75.2237 360.141 75.2778 359.795 75.1827L348.222 71.9996C345.993 71.3865 343.639 71.3874 341.411 72.0022L334.095 74.0204C333.856 74.0863 333.603 74.0816 333.367 74.007L327.597 72.1831C324.183 71.1038 320.47 71.5017 317.364 73.2799L312.217 76.2268C311.809 76.4605 311.305 76.4517 310.905 76.2038L285.027 60.1537C284.973 60.12 284.924 60.0786 284.881 60.0307C282.324 57.1345 277.816 57.0684 275.175 59.8884L250.75 85.9642C250.194 86.5582 249.229 86.4879 248.765 85.8196L242.204 76.3646C236.92 68.7495 225.501 69.1222 220.729 77.0655L218.716 80.4152C218.338 81.0447 217.505 81.2262 216.897 80.8115L194.415 65.4651C191.709 63.6181 188.393 62.8784 185.155 63.3992L167.531 66.2335C167.326 66.2665 167.116 66.2491 166.919 66.1829L142.64 58.0188C140.138 57.1775 137.436 57.129 134.905 57.88L121.952 61.7237C120.037 62.2919 118.015 62.4049 116.048 62.0535L108.956 60.7865C106.47 60.3422 103.906 60.6943 101.632 61.7921L99.8235 62.6656C98.5606 63.2754 97.1274 63.4406 95.7581 63.134L91.2296 62.1201C89.6747 61.7719 88.1968 62.9498 88.1968 64.5372C88.1968 66.0791 86.7979 67.2465 85.2738 66.9764L40.0177 58.9559L20.8998 52.751C19.7518 52.3784 19.7153 50.7741 20.8451 50.35L38.2774 43.8066Z" fill="#D1E6F7"/>
<g filter="url(#filter0_d_937_2159)">
<path d="M38.2793 43.7999C39.4322 43.3677 40.6419 43.1038 41.8707 43.0165L93.4467 39.3517C94.2456 39.295 95.048 39.3131 95.8435 39.406L137.455 44.2644C138.346 44.3684 139.245 44.3787 140.139 44.295L190.423 39.5853C192.654 39.3764 194.901 39.7554 196.938 40.6843L207.116 45.3251C209.109 46.2342 211.304 46.617 213.49 46.4366L274.459 41.4029C275.266 41.3363 276.078 41.3462 276.883 41.4326L336.753 47.8572L403.108 49.1742C403.757 49.187 404.406 49.1506 405.049 49.0652L463.551 41.3027H491.392C492.845 41.3027 494.287 41.5495 495.656 42.0324L513.498 48.3242C515.124 48.8978 516.618 49.7936 517.887 50.9575L535.06 66.7024C536.058 67.6172 535.126 69.2461 533.828 68.8577L492.276 56.4341C490.484 55.8984 488.596 55.7611 486.745 56.0319L460.641 59.852C459.628 60.0002 458.601 60.0267 457.581 59.9307L384.441 53.0469C383.295 52.939 382.14 52.9859 381.007 53.1863L307.629 66.1578C307.302 66.2155 306.966 66.1446 306.691 65.96L285.731 51.8866C283.146 50.1513 280.014 49.4168 276.924 49.8213L190.026 61.1967C188.937 61.3393 187.834 61.3414 186.744 61.2028L130.486 54.0507C129.711 53.9521 128.928 53.9246 128.147 53.9686L42.4122 58.7949C40.8297 58.884 39.2445 58.6791 37.7373 58.1906L20.905 52.7347C19.7563 52.3624 19.7198 50.7571 20.8503 50.3333L38.2793 43.7999Z" fill="white"/>
</g>
<path d="M39.9462 107.508C41.4977 108.116 45.2991 109.333 48.0919 109.333C51.5829 109.333 54.5753 105.683 56.9026 107.508" stroke="#BAD1FF" stroke-width="3" stroke-linecap="round"/>
<path d="M160.969 93.2427C162.52 93.8509 166.322 95.0673 169.114 95.0673C172.605 95.0673 175.598 91.418 177.925 93.2427" stroke="#BAD1FF" stroke-width="3" stroke-linecap="round"/>
<path d="M436.594 99.8778C438.145 100.486 441.947 101.702 444.74 101.702C448.231 101.702 451.223 98.0531 453.55 99.8778" stroke="#BAD1FF" stroke-width="3" stroke-linecap="round"/>
<path d="M420.287 23.2047L415.689 22.9134L422.818 56.1066L436.731 53.7399C467.73 58.8503 485.095 54.9812 489.903 52.4078C491.064 49.3754 492.258 40.0759 487.743 27.1378C483.229 14.1996 471.58 6.99292 466.321 5.00684C459.906 3.26101 445.095 1.07999 437.172 6.32256C428.931 9.01463 422.481 18.699 420.287 23.2047Z" fill="#F0F5FF"/>
<path d="M401.967 49.2286L406.83 50.7336C406.749 44.3739 407.846 31.7344 412.887 32.0538C417.928 32.3733 417.479 46.8206 416.625 54.0044L422.818 56.1066C423.718 51.3479 424.767 39.6457 421.765 30.9067C418.762 22.1677 414.012 21.9522 412.011 22.9367C409.843 23.8821 405.301 26.5806 404.48 29.8113C403.94 29.7087 402.58 42.7134 401.967 49.2286Z" fill="#EEF5FF"/>
<path d="M412.249 31.9386C417.35 31.848 417.501 43.5936 416.977 49.5662L406.87 50.7361C407.278 49.8136 405.873 32.0518 412.249 31.9386Z" fill="#BDCEE6"/>
<path d="M429.365 24.293L415.694 22.8282C417.576 23.7168 420.651 26.9037 422.046 31.8649C423.441 36.8261 424.393 50.1369 422.738 56.0161L436.38 53.8886C436.928 47.9392 437.35 35.0745 435.676 31.2754C434.002 27.4763 430.497 25.3051 429.365 24.293Z" fill="#D4DDEE"/>
<path d="M442.964 3.95404C446.546 3.75262 457.673 3.9128 466.48 5.49923M430.952 10.0318C439.913 9.45709 463.066 9.23929 478.469 12.9576M425.125 15.6466C434.405 15.4063 459.112 15.8124 483.705 19.359" stroke="#A3C0E8" stroke-width="0.4"/>
<path d="M419.946 23.1831C437.543 23.8424 475.807 25.5436 487.727 27.3932" stroke="#A3C0E8" stroke-width="0.4"/>
<path d="M436.503 34.4054C438.402 34.5674 440.925 34.8306 443.305 35.0033M490.062 35.064C489.875 35.1208 489.071 35.2912 488.859 35.3433M436.888 44.5172C438.124 44.7877 440.168 45.1763 441.959 45.4569M490.899 44.7771C490.409 44.8705 489.315 45.0766 488.825 45.1633M441.959 45.4569L441.378 54.6327M441.959 45.4569C446.16 46.1148 451.763 46.7341 458.189 47.0041M458.189 47.0041L457.602 56.2594M458.189 47.0041C460.887 47.1175 463.729 47.1693 466.674 47.1366M472.983 46.9364L472.387 56.3415M472.983 46.9364C475.072 46.826 477.196 46.6689 479.339 46.4578M472.983 46.9364C470.84 47.0497 468.732 47.1138 466.674 47.1366M484.679 45.8207L484.117 54.6913M488.859 35.3433L488.825 45.1633M488.859 35.3433C486.859 35.8343 483.753 36.1168 479.986 36.2462M488.825 45.1633C485.648 45.7253 482.472 46.1492 479.339 46.4578M479.986 36.2462L479.339 46.4578M479.986 36.2462C476.108 36.3795 471.529 36.3505 466.737 36.2199M466.737 36.2199L466.674 47.1366M466.737 36.2199C461.408 36.0746 455.814 35.8035 450.627 35.4898M450.627 35.4898L449.932 46.4431M450.627 35.4898C448.06 35.3347 445.593 35.1692 443.305 35.0033M444.761 24.1574C444.132 26.8899 442.872 33.2077 443.305 35.0033" stroke="#A3C0E8" stroke-width="0.4"/>
<path d="M458.897 25.0366L459.402 35.9421M472.265 25.8838L473.824 36.3431M482.81 26.7397L485.572 35.7887M483.276 19.4007L486.205 27.1258M475.14 18.2867L478.225 26.2615M464.953 17.1448L466.22 25.5007M452.614 16.2773L452.086 24.6049M440.681 15.6921L438.364 23.923M430.857 15.5824L427.37 23.3972M440.21 9.66148L436.067 15.6561M432.07 9.93165L425.982 15.6154M448.669 9.7013L446.654 15.883M458.216 10.1354L459.168 16.6927M467.396 10.9736L469.792 17.6913M475.686 12.3538L479.123 18.8122M466.296 5.41608L471.631 11.5839M459.935 4.60213L462.809 10.5119M454.576 4.17704L453.698 9.93452M448.346 4.02208L443.978 9.55833M443.645 3.99722L436.269 9.77033" stroke="#A3C0E8" stroke-width="0.4"/>
<path d="M416.455 53.9008L422.653 56.0663M422.653 56.0663L436.38 53.9442C437.229 47.3015 437.196 34.1855 435.83 31.5973C434.418 28.1108 431.099 25.3134 429.28 24.3432L415.274 22.7717M422.653 56.0663C424.536 51.9968 423.835 37.4196 421.611 30.6962C419.832 25.3174 416.645 23.1721 415.274 22.7717M415.274 22.7717C410.379 21.7776 405.308 27.4628 404.497 29.6116C403.639 30.862 402.31 42.9799 401.973 49.1991L406.916 50.7946L416.906 49.4841" stroke="#A3C0E8" stroke-width="0.4"/>
<path d="M406.836 50.7041C406.772 44.5165 407.689 32.122 411.866 32.0447C417.087 31.9482 418.005 40.3841 416.461 53.9641" stroke="#A3C0E8" stroke-width="0.4"/>
<path d="M402.473 44.0161L407.091 45.3346L417.144 44.4628M416.971 48.4623L423.723 49.9791L436.901 48.3649M417.136 41.8049L423.367 43.4595L437.024 42.2958M416.369 36.3706L421.552 31.6328L435.601 31.0997M413.808 32.4243L416.184 23.2011M409.717 24.0736L410.726 32.4298M404.784 29.0612L408.941 35.0224M402.829 38.3965L407.453 39.6299L416.831 38.6854" stroke="#A3C0E8" stroke-width="0.4"/>
<path d="M436.476 53.7237C449.839 55.9953 479.057 58.9885 490.089 52.1649C493.535 36.9101 487.401 16.3465 469.662 6.24611C452.317 0.428055 440.605 3.86322 436.916 6.30806C433.674 7.55587 425.759 12.6622 420.037 23.1051" stroke="#A3C0E8" stroke-width="0.4"/>
<defs>
<filter id="filter0_d_937_2159" x="0.022583" y="15.3195" width="555.457" height="69.5971" filterUnits="userSpaceOnUse" color-interpolation-filters="sRGB">
<feFlood flood-opacity="0" result="BackgroundImageFix"/>
<feColorMatrix in="SourceAlpha" type="matrix" values="0 0 0 0 0 0 0 0 0 0 0 0 0 0 0 0 0 0 127 0" result="hardAlpha"/>
<feOffset dy="-4"/>
<feGaussianBlur stdDeviation="10"/>
<feComposite in2="hardAlpha" operator="out"/>
<feColorMatrix type="matrix" values="0 0 0 0 0 0 0 0 0 0 0 0 0 0 0 0 0 0 0.03 0"/>
<feBlend mode="normal" in2="BackgroundImageFix" result="effect1_dropShadow_937_2159"/>
<feBlend mode="normal" in="SourceGraphic" in2="effect1_dropShadow_937_2159" result="shape"/>
</filter>
</defs>
</svg>
