<svg width="515" height="392" viewBox="0 0 515 392" fill="none" xmlns="http://www.w3.org/2000/svg">
<path d="M36.1791 271.105C38.3607 270.007 40.6889 269.226 43.0926 268.787L84.1858 261.288C87.6205 260.661 91.1475 260.743 94.549 261.53L124.64 268.487C128.066 269.279 131.618 269.357 135.076 268.716L170.196 262.202C176.53 261.027 183.05 262.869 187.827 267.182C192.489 271.391 198.819 273.253 205.023 272.238L250.473 264.808C253.61 264.295 256.816 264.371 259.925 265.031L309.038 275.468C310.459 275.77 311.903 275.95 313.354 276.007L369.034 278.195C371.564 278.295 374.096 278.018 376.545 277.375L424.128 264.872C426.252 264.314 428.438 264.032 430.634 264.032H454.841L475.404 265.328C477.922 265.487 479.603 267.986 478.796 270.371L469.462 291.477L464.338 302.697C463.216 305.155 459.536 304.412 459.46 301.712L459.073 288.094C459.039 286.901 457.526 286.405 456.789 287.346L447.327 299.435L429.237 319.493C427.98 320.887 425.694 320.494 424.977 318.76L423.789 315.89C423.015 314.02 420.471 313.751 419.322 315.419L405.27 335.822C404.986 336.235 404.585 336.556 404.12 336.743L398.047 339.185C396.666 339.741 395.17 339.951 393.689 339.799L392.35 339.662C389.15 339.333 386.539 336.959 385.913 333.811C385.233 330.388 382.223 327.921 378.726 327.921H376.003C375.913 327.921 375.833 327.865 375.803 327.781L371.496 315.85C370.554 313.243 366.708 313.796 366.542 316.562L366.208 322.117C366.159 322.95 365.704 323.705 364.991 324.14L321.324 350.782C316.551 353.695 313.372 358.623 312.693 364.164C312.593 364.978 311.962 365.627 311.149 365.75L286.837 369.442C286.259 369.53 285.729 369.813 285.335 370.243L275.509 380.978C272.421 384.351 268.286 386.59 263.769 387.334L261.832 387.653C256.852 388.474 251.772 386.958 248.061 383.544L247.305 382.849C245.262 380.969 243.865 378.495 243.314 375.777L241.298 365.848C239.957 359.241 231.616 357.021 227.155 362.084C226.688 362.615 225.81 362.341 225.73 361.638L225.077 355.909C223.673 343.607 213.614 334.09 201.228 333.345L199.625 333.249L183.921 330.135C176.879 328.739 169.574 330.364 163.793 334.612L159.701 337.619C157.709 339.082 155.3 339.872 152.826 339.872H152.125C148.375 339.872 144.916 337.856 143.073 334.597C141.897 332.517 140.038 330.906 137.81 330.035L133.253 328.255C133.077 328.187 132.909 328.097 132.754 327.99L114.711 315.461C114.282 315.164 113.773 315.004 113.251 315.004H103.853C99.1393 315.004 94.6451 316.991 91.4781 320.474C89.5604 322.584 86.5119 323.245 83.8896 322.121L74.9692 318.296C70.3252 316.304 64.9359 317.309 61.3258 320.839C58.3555 323.744 53.4217 322.985 51.4654 319.323L50.3145 317.169C49.548 315.734 49.0039 314.192 48.7006 312.594L47.3226 305.334C45.9473 298.088 41.4952 291.792 35.1155 288.07L20 279.252L36.1791 271.105Z" fill="#98C4E7"/>
<path d="M35.8576 271.076L20 279.167L36.7758 292.137C42.4234 296.503 45.9755 303.022 46.5705 310.113L53.0254 387.039L54.3917 319.814C54.4226 318.293 56.6236 318.098 56.9243 319.589L61.3048 341.314C61.8914 344.223 66.1569 343.951 66.3642 340.991L67.1553 329.697C67.3541 326.86 71.3705 326.435 72.1641 329.168L77.9063 348.938C78.6952 351.654 82.6817 351.257 82.9128 348.439L84.7664 325.842C85.1481 321.19 91.7686 320.617 92.9513 325.134C93.5171 327.296 96.6459 327.161 97.0213 324.959L100.575 304.112C100.808 302.744 102.76 302.682 103.081 304.031L119.088 371.321C119.625 373.579 122.895 373.457 123.261 371.165L131.099 322.103C131.808 317.66 137.797 316.68 139.9 320.663C141.791 324.245 147.053 323.907 148.467 320.113L152.103 310.349C152.395 309.565 153.497 309.531 153.837 310.295L158.879 321.605C160.712 325.718 166.586 325.695 168.387 321.569L170.138 317.556C171.059 315.446 173.979 315.226 175.208 317.174C176.594 319.37 179.966 318.745 180.463 316.2L183.785 299.205C184.352 296.3 186.222 293.812 188.861 292.448L199.251 287.079C200.747 286.306 202.572 287.159 202.93 288.797L209.175 317.391C209.463 318.713 209.645 320.055 209.72 321.405L213.436 389.002L219.192 310.603C219.297 309.167 221.341 308.982 221.705 310.375L226.371 328.242C227.084 330.969 231.063 330.693 231.388 327.894L235.077 296.148C235.242 294.721 237.288 294.619 237.596 296.022L245.74 333.076C246.374 335.961 250.61 335.636 250.791 332.688L252.354 307.331C252.389 306.773 253.171 306.67 253.35 307.2L263.842 338.284C263.989 338.718 264.397 339.011 264.858 339.011C269.452 339.011 273.535 336.097 275.007 331.767L277.913 323.222C278.289 322.116 279.886 322.192 280.155 323.328L286.313 349.356C286.959 352.085 290.917 351.921 291.333 349.147L298.777 299.417C298.865 298.83 299.72 298.842 299.791 299.432L303.149 327.417C303.463 330.027 307.062 330.509 308.058 328.075L320.373 297.992C320.584 297.478 321.351 297.622 321.358 298.177L322.572 391.872L329.954 326.151C329.99 325.837 330.439 325.811 330.51 326.12L333.824 340.463C334.699 344.249 340.249 343.831 340.54 339.956L340.628 338.784C340.81 336.369 343.748 335.271 345.482 336.969C345.606 337.09 345.809 337.074 345.912 336.935L350.681 330.524C353.245 327.077 357.97 326.037 361.756 328.087L362.144 328.297C365.409 330.065 369.465 329.387 371.971 326.655C373.24 325.27 374.957 324.37 376.823 324.112L377.131 324.069C380.514 323.6 383.332 321.255 384.393 318.025L387.37 308.965C390.032 300.859 397.197 295.04 405.711 294.065L413.103 293.218C417.711 292.691 421.511 289.382 422.647 284.908C424.821 276.351 416.577 268.814 408.19 271.689L377.847 282.093C374.747 283.155 371.471 283.615 368.197 283.447L314.217 280.679C312.34 280.583 310.479 280.281 308.667 279.779L261.432 266.681C257.446 265.576 253.249 265.449 249.203 266.313L206.44 275.435C199.562 276.903 192.431 274.479 187.892 269.132C183.232 263.641 175.852 261.245 168.835 262.944L136.591 270.747C132.149 271.822 127.498 271.693 123.123 270.373L95.2589 261.967C91.3492 260.787 87.2124 260.557 83.1948 261.295L42.8874 268.695C40.4402 269.144 38.072 269.947 35.8576 271.076Z" fill="#D1E6F7"/>
<g filter="url(#filter0_d_20_355)">
<path d="M20.476 279.767C20.0375 279.753 19.8307 279.256 20.1668 278.977C25.7481 274.349 44.4058 266.85 51.8557 265.811L79.1022 262.011C86.0643 261.04 92.9152 256.035 99.6084 257.568L124.583 262.879C130.666 264.273 140.005 258.031 147.397 254.889C150.43 253.6 153.798 253.679 157.032 254.337L168.035 256.573C171.27 257.23 174.76 256.786 177.86 257.911C182.204 259.489 184.815 264.273 188.233 267.332C192.646 271.281 200.574 273.1 208.075 271.885L244.869 265.923C250.474 265.015 255.967 263.522 261.451 263.703C264.183 263.794 266.929 264.033 269.645 263.735L281.262 262.461C283.979 262.163 286.69 262.466 288.953 263.982C292.81 266.566 298.499 271.015 302.34 273.366C304.502 274.69 307.055 274.601 309.514 273.957L336.32 266.943C338.778 266.299 341.309 266.02 343.852 266.015C352 265.996 368.485 265.559 376.538 264.751C379.103 264.494 381.684 264.242 384.26 264.356L416.958 265.801C419.533 265.914 422.103 265.598 424.637 265.132C428.044 264.505 431.587 264.185 435.155 264.185H438.715C449.22 264.185 462.942 259.968 473.607 262.011L494.579 265.73C495.145 265.83 495.138 266.634 494.571 266.726L471.751 270.407C465.831 271.362 459.67 269.809 453.672 269.72C445.753 269.602 436.343 272.74 428.724 274.928C423.808 276.34 426.946 281.797 425.672 283.735C424.571 285.411 421.838 284.354 419.82 284.459L378.879 286.581C376.861 286.685 374.842 286.522 372.832 286.319C365.488 285.579 355.307 286.316 347.33 287.861C342.492 288.798 337.478 289.124 332.687 287.977L296.286 279.264C295.998 279.196 295.701 279.177 295.406 279.209L280.914 280.784C271.938 281.76 262.584 276.992 253.556 276.848C244.822 276.708 233.771 280.273 223.139 283.187C220.617 283.879 217.997 284.134 215.383 283.998L187.808 282.564C185.195 282.428 182.574 282.682 180.062 283.41C172.056 285.729 163.24 288.666 155.513 286.738L131.338 284.203C124.908 282.599 117.986 281.605 111.163 282.359L59.0041 293.745C49.7988 294.762 45.0138 289.493 39.4627 284.525C36.0332 281.455 31.4852 280.112 26.8613 279.967L20.476 279.767Z" fill="white"/>
</g>
<path d="M297.306 114.635C326.988 145.47 333.616 178.899 326.988 201.377C326.988 254.597 278.401 283.219 231.601 269.387C171.66 286.965 143.995 239.704 143.13 198.207C142.266 156.709 187.368 105.606 190.392 93.8863C192.697 84.9528 193.37 59.401 192.409 46.9133C191.352 31.2556 199.21 0.170738 239.094 1.09291C283.473 -2.07697 280.015 76.7934 280.015 82.3591C280.015 87.7419 290.87 105.605 297.306 114.635Z" fill="url(#paint0_linear_20_355)" stroke="black"/>
<path d="M298.158 196.182C298.158 223.079 259.966 252.953 234.182 252.953C208.399 252.953 174.818 227.402 174.818 200.504C174.818 173.607 180.446 130.189 206.229 130.189C232.012 130.189 298.158 169.284 298.158 196.182Z" fill="white"/>
<path d="M174.817 192.724C174.817 219.621 213.01 249.495 238.793 249.495C264.576 249.495 298.158 223.944 298.158 197.046C298.158 170.149 292.53 126.731 266.746 126.731C240.963 126.731 174.817 165.826 174.817 192.724Z" fill="white"/>
<path d="M186.056 144.022C199.197 119.584 204.788 92.7259 205.941 82.3515C223.904 77.0682 262.135 69.6716 263.288 82.3514C264.441 95.0312 279.426 128.748 287.783 144.022C248.399 154.204 172.916 168.459 186.056 144.022Z" fill="white"/>
<path d="M195.278 290.199C171.763 280.055 152.022 278.005 144.146 277.813C133.541 277.813 133.195 265.902 134.347 259.946C136.365 256.392 139.535 247.093 136.077 238.333C132.618 229.572 141.936 223.732 147.027 221.907C154.645 220.181 159.256 214.417 164.155 207.789C175.97 193.092 189.966 213.838 197.17 226.229C204.375 238.621 216.315 255.173 221.791 262.245C226.541 268.381 224.673 302.878 195.278 290.199Z" fill="url(#paint1_linear_20_355)" stroke="#EE8A35" stroke-width="3"/>
<path d="M223.02 58.3478C223.02 62.3702 221.603 66.0083 219.537 68.6348C217.462 71.2721 214.783 72.833 212.281 72.833C209.799 72.833 207.487 71.2941 205.771 68.6703C204.058 66.051 202.983 62.4028 202.983 58.3478C202.983 54.2927 204.058 50.6446 205.771 48.0252C207.487 45.4015 209.799 43.8625 212.281 43.8625C214.783 43.8625 217.462 45.4235 219.537 48.0608C221.603 50.6873 223.02 54.3254 223.02 58.3478Z" fill="white" stroke="black"/>
<path d="M219.85 62.094C219.85 64.6888 218.969 67.0326 217.689 68.7202C216.4 70.4204 214.761 71.3921 213.268 71.3921C211.795 71.3921 210.389 70.4438 209.325 68.7557C208.265 67.0741 207.594 64.7202 207.594 62.094C207.594 59.4678 208.265 57.1139 209.325 55.4323C210.389 53.7442 211.795 52.796 213.268 52.796C214.761 52.796 216.4 53.7677 217.689 55.4678C218.969 57.1555 219.85 59.4993 219.85 62.094Z" fill="black" stroke="black"/>
<path d="M261.347 58.6359C261.347 63.0375 259.438 67.686 256.624 71.2371C253.799 74.8013 250.149 77.1556 246.735 77.1556C243.378 77.1556 240.226 74.4395 237.878 70.4305C235.546 66.4491 234.106 61.3485 234.106 56.9068C234.106 48.0624 240.784 41.2688 247.727 41.2688C251.155 41.2688 254.554 43.351 257.118 46.6096C259.676 49.8612 261.347 54.2206 261.347 58.6359Z" fill="white" stroke="black"/>
<path d="M253.855 60.9413C253.855 63.8529 252.855 66.4842 251.4 68.3804C249.937 70.2887 248.067 71.3921 246.349 71.3921C244.651 71.3921 243.043 70.3117 241.835 68.416C240.631 66.5261 239.869 63.8848 239.869 60.9413C239.869 57.9979 240.631 55.3566 241.835 53.4667C243.043 51.571 244.651 50.4906 246.349 50.4906C248.067 50.4906 249.937 51.594 251.4 53.5022C252.855 55.3985 253.855 58.0297 253.855 60.9413Z" fill="black" stroke="black"/>
<path d="M244.672 67.8492C230.839 57.2443 217.391 65.3517 212.396 70.731C209.994 71.5956 204.557 74.535 202.021 79.3763C198.851 85.4281 207.497 91.1916 209.514 92.6325C211.531 94.0734 210.955 95.5143 218.159 99.2606C218.851 102.949 226.901 103.487 230.839 103.295C232.28 103.775 237.928 102.892 248.994 95.5143C261.444 90.9035 263.98 83.9872 263.691 81.1054C265.132 78.8 263.346 72.9212 244.672 67.8492Z" fill="url(#paint2_linear_20_355)" stroke="#EE8A35" stroke-width="3"/>
<path d="M208.246 82.2666C213.53 88.7026 227.9 99.2115 243.116 89.7593C256.084 82.2666 254.931 81.6903 257.813 81.1139" stroke="#EE8A35" stroke-width="3"/>
<path d="M271.336 290.199C294.852 280.055 314.592 278.005 322.469 277.813C333.074 277.813 333.42 265.902 332.267 259.946C330.25 256.392 327.08 247.093 330.538 238.333C333.996 229.572 324.679 223.732 319.587 221.907C311.969 220.181 307.359 214.417 302.46 207.789C290.644 193.092 276.649 213.838 269.444 226.229C262.24 238.621 250.299 255.173 244.824 262.245C240.074 268.381 241.942 302.878 271.336 290.199Z" fill="url(#paint3_linear_20_355)" stroke="#EE8A35" stroke-width="3"/>
<path d="M320.156 206.471C320.156 208.239 319.381 210.157 318.034 212.062C316.691 213.963 314.805 215.813 312.651 217.438C308.327 220.7 303.028 222.974 299.042 222.974C295.09 222.974 291.988 221.02 289.858 218.118C287.72 215.206 286.574 211.35 286.574 207.624C286.574 206.999 286.569 206.383 286.564 205.776C286.554 204.51 286.543 203.287 286.581 202.121C286.636 200.399 286.795 198.853 287.195 197.558C287.592 196.27 288.219 195.256 289.196 194.555C290.177 193.853 291.567 193.427 293.567 193.427C297.622 193.427 304.327 194.882 310.02 197.295C312.864 198.5 315.422 199.93 317.261 201.511C319.109 203.1 320.156 204.776 320.156 206.471Z" fill="black" stroke="black"/>
<path d="M162 77.414C162 42.091 140.34 6 121 6C101.66 6 80 43.2428 80 77.414C80 111.585 102.047 120.8 121 120.8C139.953 120.8 162 112.737 162 77.414Z" fill="url(#paint4_linear_20_355)"/>
<path d="M144.113 54.9303C144.145 53.6635 144.168 52.3828 144.186 51.0996C143.938 51.8595 143.824 53.1736 144.113 54.9303Z" fill="url(#paint5_linear_20_355)"/>
<path d="M94.041 118.375C95.0716 113.653 115.472 114.456 124.919 116.424L142.954 118.375C147.463 118.375 158.413 130.983 163.565 134.131C168.718 137.279 186.109 140.034 177.775 151.823V163.628C161.028 165.814 148.661 152.76 141.543 145.936C132.648 137.41 122.258 127.557 122.258 128.213C122.258 128.869 92.7528 124.278 94.041 118.375Z" fill="#191919"/>
<defs>
<filter id="filter0_d_20_355" x="0" y="229.872" width="515" height="80" filterUnits="userSpaceOnUse" color-interpolation-filters="sRGB">
<feFlood flood-opacity="0" result="BackgroundImageFix"/>
<feColorMatrix in="SourceAlpha" type="matrix" values="0 0 0 0 0 0 0 0 0 0 0 0 0 0 0 0 0 0 127 0" result="hardAlpha"/>
<feOffset dy="-4"/>
<feGaussianBlur stdDeviation="10"/>
<feComposite in2="hardAlpha" operator="out"/>
<feColorMatrix type="matrix" values="0 0 0 0 0 0 0 0 0 0 0 0 0 0 0 0 0 0 0.03 0"/>
<feBlend mode="normal" in2="BackgroundImageFix" result="effect1_dropShadow_20_355"/>
<feBlend mode="normal" in="SourceGraphic" in2="effect1_dropShadow_20_355" result="shape"/>
</filter>
<linearGradient id="paint0_linear_20_355" x1="236.228" y1="1" x2="236.228" y2="273.16" gradientUnits="userSpaceOnUse">
<stop stop-color="#383838"/>
<stop offset="1"/>
</linearGradient>
<linearGradient id="paint1_linear_20_355" x1="178.842" y1="202.725" x2="178.842" y2="292.976" gradientUnits="userSpaceOnUse">
<stop stop-color="#FDA041"/>
<stop offset="1" stop-color="#FFE60F"/>
</linearGradient>
<linearGradient id="paint2_linear_20_355" x1="232.705" y1="62.6704" x2="232.705" y2="103.403" gradientUnits="userSpaceOnUse">
<stop stop-color="#FCA643"/>
<stop offset="1" stop-color="#FFF607"/>
</linearGradient>
<linearGradient id="paint3_linear_20_355" x1="287.773" y1="202.725" x2="287.773" y2="292.976" gradientUnits="userSpaceOnUse">
<stop stop-color="#FDA041"/>
<stop offset="1" stop-color="#FFE60F"/>
</linearGradient>
<linearGradient id="paint4_linear_20_355" x1="80" y1="5.46852" x2="161.799" y2="120.412" gradientUnits="userSpaceOnUse">
<stop offset="0.135417" stop-color="#FF4487"/>
<stop offset="0.75" stop-color="#AC5591"/>
</linearGradient>
<linearGradient id="paint5_linear_20_355" x1="90.2499" y1="27.9795" x2="114.134" y2="93.7125" gradientUnits="userSpaceOnUse">
<stop offset="0.135417" stop-color="#FF4487"/>
<stop offset="0.75" stop-color="#AC5591"/>
</linearGradient>
</defs>
</svg>
