<svg width="1440" height="306" viewBox="0 0 1440 306" fill="none" xmlns="http://www.w3.org/2000/svg">
<path d="M62.936 49.44H-9V326H1476V83.858C1465.27 72.3853 1450.34 3 1422.17 3C1386.96 3 1379.41 13.5902 1353.76 13.5902C1328.1 13.5902 1342.19 31.5934 1304.96 31.5934C1267.74 31.5934 1257.17 58.5983 1184.73 41.1246C1161.09 23.6509 1144.49 49.44 1098.21 49.44C1051.93 49.44 1041.87 49.44 1009.67 41.1246C986.601 35.1652 931.366 64.0897 912.585 66.3843C890.116 72.2089 854.735 49.44 832.601 49.44C810.466 49.44 730.482 43.0661 687.723 31.5934C665.924 37.2415 592.445 66.3843 577.555 66.3843C562.665 66.3843 537.143 55.0881 526.244 49.44L430.665 66.3843H365.771C354.201 66.3843 311.945 78.5629 286.793 49.44C261.64 20.3171 247.052 66.3843 232.966 49.44C218.881 32.4958 170.085 49.44 149.46 49.44C128.835 49.44 114.247 69.0318 98.1494 66.3843C85.2713 64.2662 69.3079 54.2056 62.936 49.44Z" fill="#5E87D8" fill-opacity="0.5" stroke="#B2CBFD" stroke-width="5"/>
</svg>
