<svg width="863" height="610" viewBox="0 0 863 610" fill="none" xmlns="http://www.w3.org/2000/svg">
<path d="M794.709 401.017C785.989 391.04 773.383 383.258 758.816 378.86L708.385 363.637C695.498 359.747 681.666 358.684 668.562 360.577L632.036 365.855C617.381 367.972 601.859 366.387 587.796 361.337L540.349 344.299C526.297 339.253 510.196 341.375 500.431 349.559C490.938 357.516 475.416 359.765 461.581 355.187L393.72 332.732C380.81 328.46 366.799 327.062 353.425 328.709L273.775 338.522C267.738 339.266 261.537 339.393 255.336 338.899L158.464 331.192C151.083 330.605 143.787 329.146 136.843 326.87L56.541 300.543C50.9853 298.721 45.1982 297.421 39.317 296.674L21.2189 294.374C9.34739 292.866 -2.61578 293.645 -13.5412 296.639L-21.5922 298.845C-37.6314 303.239 -50.4689 312.136 -57.5838 323.789L-85.7916 369.988C-88.0224 373.641 -83.8907 378.028 -78.4502 377.782L-66.1274 377.224C-63.3866 377.1 -60.6861 378.212 -59.2308 380.064L-49.0662 392.996C-48.4835 393.738 -48.1319 394.56 -48.04 395.396L-41.9669 450.688C-41.4554 455.345 -33.8343 457.685 -29.7335 454.443L27.3481 409.326C39.944 399.37 63.0369 403.771 69.9316 417.441C70.2591 418.091 71.0056 418.585 71.894 418.742L90.1323 421.952C105.509 424.658 119.63 431.094 130.272 440.247L137.633 446.577C143.695 451.791 148.475 457.756 151.718 464.155L168.092 496.46L175.067 507.604C180.545 516.357 188.917 524.017 199.319 529.794L206.743 533.916C209.708 535.563 213.678 535.359 215.978 533.44L224.648 526.209L274.003 474.065C274.419 473.625 275.092 473.366 275.832 473.361C286.877 473.291 297.158 478.845 300.907 486.908L304.906 495.509C305.398 496.566 306.592 497.38 308.026 497.634L308.534 497.725C331.338 501.775 348.403 517.193 349.384 534.632L349.879 543.435C350.152 548.275 358.703 550.22 361.728 546.13L386.226 513.009C399.505 495.056 433.693 494.273 451.961 511.411C453.449 512.808 456.131 513.01 457.698 511.836L470.824 502.001C478.725 496.082 492.087 496.751 500.109 503.467C511.26 512.804 530.807 509.777 534.348 498.166L537.067 489.248C541.011 476.316 560.77 470.862 576.426 478.265L601.068 487.597C602.846 488.27 604.231 489.449 604.894 490.855L638.557 562.253C639.037 563.272 640.939 563.284 641.245 562.271L672.883 457.389C675.24 449.573 688.177 447.289 696.062 453.297C701.345 457.321 709.539 457.846 714.933 454.505L720.498 451.058C722.736 449.671 725.36 448.666 728.209 448.103L763.938 441.038L808.508 427.603C812.419 426.423 813.736 422.792 811.274 419.974L794.709 401.017Z" fill="#98C4E7"/>
<path d="M794.709 401.017C785.989 391.04 773.383 383.258 758.816 378.86L708.385 363.637C695.498 359.747 681.666 358.684 668.562 360.577L632.036 365.855C617.381 367.972 601.859 366.387 587.796 361.337L540.349 344.299C526.297 339.253 510.195 341.375 500.431 349.559C490.938 357.516 475.416 359.765 461.581 355.187L393.72 332.732C380.81 328.46 366.799 327.062 353.425 328.709L273.775 338.522C267.738 339.266 261.537 339.393 255.336 338.899L159.277 331.257C151.365 330.628 143.554 328.997 136.172 326.434L65.9541 302.051C59.9506 299.966 53.6556 298.496 47.2463 297.682L25.0987 294.867C14.3166 293.497 3.44369 294.013 -6.66866 296.373L-19.6622 299.406C-36.8748 303.423 -50.7979 312.526 -58.4218 324.745L-92.0758 378.685C-94.448 382.487 -89.8921 387.039 -84.2736 386.48L-71.3867 385.199C-71.0096 385.162 -70.623 385.167 -70.2398 385.216C-53.6801 387.32 -39.973 397.095 -36.182 409.505L-29.8194 430.331C-28.3044 435.29 -19.4768 436.484 -16.6408 432.113L-4.20728 412.951C-2.63238 410.524 -0.755418 408.227 1.40026 406.09L13.5457 394.048C25.4302 382.265 48.1283 380.211 65.3244 389.362C74.6066 394.302 80.9331 401.856 82.7079 410.12L104.557 511.854C105.692 517.138 115.181 518.53 117.937 513.815L148.296 461.878C149.645 459.57 153.087 458.466 156.427 459.27L191.571 467.732C192.251 467.896 192.816 468.283 193.1 468.781C200.281 481.352 222.383 484.137 232.438 473.737L253.313 452.148C254.627 450.789 257.204 450.53 259.164 451.561L260.972 452.512C271.415 458.006 283.483 461.276 295.796 461.948L312.335 462.852C313.123 462.895 313.851 462.617 314.241 462.123L315.637 460.358C320.094 454.72 329.504 452.604 337.985 455.332C338.939 455.639 339.988 455.33 340.345 454.636L357.969 420.375C360.606 415.25 370.902 416.9 371.528 422.548L376.247 465.102C376.625 468.515 382.071 470.348 385.308 468.153C403.438 455.858 431.464 455.504 452.468 467.305L455.328 468.912C457.45 470.105 460.324 469.855 461.779 468.352L476.733 452.909C486.951 442.356 508.472 442.911 519.82 454.021C520.733 454.914 522.366 455.157 523.523 454.571L557.865 437.19C564.71 433.726 574.004 433.999 581.185 437.876L589.202 442.204C594.771 445.21 602.206 444.231 605.449 440.063C609.956 434.272 621.589 435.11 625.739 441.524L631.981 451.171C635.66 456.858 645.872 457.789 650.224 452.836L653.154 449.5C655.884 446.394 662.181 446.721 664.95 450.113C667.582 453.338 673.479 453.832 676.41 451.073L683.424 444.473C686.587 441.496 691.693 440.087 696.916 440.751L743.56 446.678C762.407 449.072 781.178 445.67 795.611 437.242L811.128 428.182C813.878 426.576 814.41 423.563 812.358 421.214L794.709 401.017Z" fill="#D1E6F7"/>
<g filter="url(#filter0_d_340_637)">
<path d="M155.381 76.1831L-28.1259 80.875L-69.1617 403.836L74.5671 390.919L107.936 449.591L237.63 442.817L303.095 419.956L366.203 403.137L422.734 458.938L484.985 407.132L627.075 398.763L657.98 368.34L760.168 427.828L830.722 364.922L796.201 252.729L721.534 197.794L594.5 133.5L465.841 65.4264L250.491 116.276L155.381 76.1831Z" fill="white"/>
</g>
<defs>
<filter id="filter0_d_340_637" x="-89.1617" y="41.4264" width="939.884" height="433.512" filterUnits="userSpaceOnUse" color-interpolation-filters="sRGB">
<feFlood flood-opacity="0" result="BackgroundImageFix"/>
<feColorMatrix in="SourceAlpha" type="matrix" values="0 0 0 0 0 0 0 0 0 0 0 0 0 0 0 0 0 0 127 0" result="hardAlpha"/>
<feOffset dy="-4"/>
<feGaussianBlur stdDeviation="10"/>
<feComposite in2="hardAlpha" operator="out"/>
<feColorMatrix type="matrix" values="0 0 0 0 0 0 0 0 0 0 0 0 0 0 0 0 0 0 0.03 0"/>
<feBlend mode="normal" in2="BackgroundImageFix" result="effect1_dropShadow_340_637"/>
<feBlend mode="normal" in="SourceGraphic" in2="effect1_dropShadow_340_637" result="shape"/>
</filter>
</defs>
</svg>
