<svg width="20" height="12" viewBox="0 0 20 12" fill="none" xmlns="http://www.w3.org/2000/svg">
<path d="M1.70999 10.29C1.61488 10.199 1.50274 10.1276 1.37999 10.08C1.13653 9.97998 0.86345 9.97998 0.619988 10.08C0.497237 10.1276 0.385092 10.199 0.289988 10.29C0.198948 10.3851 0.127583 10.4972 0.0799884 10.62C0.00340893 10.8021 -0.0175137 11.0028 0.0198604 11.1968C0.0572345 11.3908 0.151231 11.5694 0.289988 11.71C0.387189 11.7983 0.498803 11.8694 0.619988 11.92C0.739689 11.9729 0.869118 12.0002 0.999988 12.0002C1.13086 12.0002 1.26029 11.9729 1.37999 11.92C1.50117 11.8694 1.61279 11.7983 1.70999 11.71C1.84875 11.5694 1.94274 11.3908 1.98012 11.1968C2.01749 11.0028 1.99657 10.8021 1.91999 10.62C1.87239 10.4972 1.80103 10.3851 1.70999 10.29V10.29ZM4.99999 2H19C19.2652 2 19.5196 1.89464 19.7071 1.70711C19.8946 1.51957 20 1.26522 20 1C20 0.734784 19.8946 0.48043 19.7071 0.292893C19.5196 0.105357 19.2652 0 19 0H4.99999C4.73477 0 4.48042 0.105357 4.29288 0.292893C4.10535 0.48043 3.99999 0.734784 3.99999 1C3.99999 1.26522 4.10535 1.51957 4.29288 1.70711C4.48042 1.89464 4.73477 2 4.99999 2ZM1.70999 5.29C1.56936 5.15124 1.39079 5.05725 1.1968 5.01987C1.00281 4.9825 0.802099 5.00342 0.619988 5.08C0.498803 5.13064 0.387189 5.20167 0.289988 5.29C0.198948 5.3851 0.127583 5.49725 0.0799884 5.62C0.0270832 5.7397 -0.000244141 5.86913 -0.000244141 6C-0.000244141 6.13087 0.0270832 6.2603 0.0799884 6.38C0.13063 6.50119 0.201657 6.6128 0.289988 6.71C0.387189 6.79833 0.498803 6.86936 0.619988 6.92C0.739689 6.97291 0.869118 7.00023 0.999988 7.00023C1.13086 7.00023 1.26029 6.97291 1.37999 6.92C1.50117 6.86936 1.61279 6.79833 1.70999 6.71C1.79832 6.6128 1.86935 6.50119 1.91999 6.38C1.97289 6.2603 2.00022 6.13087 2.00022 6C2.00022 5.86913 1.97289 5.7397 1.91999 5.62C1.87239 5.49725 1.80103 5.3851 1.70999 5.29V5.29ZM19 5H4.99999C4.73477 5 4.48042 5.10536 4.29288 5.29289C4.10535 5.48043 3.99999 5.73478 3.99999 6C3.99999 6.26522 4.10535 6.51957 4.29288 6.70711C4.48042 6.89464 4.73477 7 4.99999 7H19C19.2652 7 19.5196 6.89464 19.7071 6.70711C19.8946 6.51957 20 6.26522 20 6C20 5.73478 19.8946 5.48043 19.7071 5.29289C19.5196 5.10536 19.2652 5 19 5ZM1.70999 0.29C1.61488 0.198959 1.50274 0.127594 1.37999 0.0799999C1.19788 0.00342049 0.997164 -0.0175019 0.803175 0.0198722C0.609185 0.0572463 0.430612 0.151242 0.289988 0.29C0.201657 0.387201 0.13063 0.498815 0.0799884 0.62C0.0270832 0.7397 -0.000244141 0.869129 -0.000244141 1C-0.000244141 1.13087 0.0270832 1.2603 0.0799884 1.38C0.13063 1.50119 0.201657 1.6128 0.289988 1.71C0.387189 1.79833 0.498803 1.86936 0.619988 1.92C0.802099 1.99658 1.00281 2.0175 1.1968 1.98013C1.39079 1.94275 1.56936 1.84876 1.70999 1.71C1.79832 1.6128 1.86935 1.50119 1.91999 1.38C1.97289 1.2603 2.00022 1.13087 2.00022 1C2.00022 0.869129 1.97289 0.7397 1.91999 0.62C1.86935 0.498815 1.79832 0.387201 1.70999 0.29V0.29ZM19 10H4.99999C4.73477 10 4.48042 10.1054 4.29288 10.2929C4.10535 10.4804 3.99999 10.7348 3.99999 11C3.99999 11.2652 4.10535 11.5196 4.29288 11.7071C4.48042 11.8946 4.73477 12 4.99999 12H19C19.2652 12 19.5196 11.8946 19.7071 11.7071C19.8946 11.5196 20 11.2652 20 11C20 10.7348 19.8946 10.4804 19.7071 10.2929C19.5196 10.1054 19.2652 10 19 10Z" fill="#9A4D7F"/>
</svg>
