<svg width="150" height="220" viewBox="0 0 150 220" fill="none" xmlns="http://www.w3.org/2000/svg">
<path d="M122.46 85.4638C144.523 108.383 149.449 133.23 144.523 149.938C144.523 189.496 108.408 210.771 73.6222 200.489C29.0687 213.555 8.5056 178.427 7.863 147.582C7.2204 116.737 40.7443 78.7526 42.9918 70.0414C44.705 63.4012 45.2052 44.4089 44.4912 35.1269C43.7058 23.4887 49.5464 0.383618 79.1916 1.06906C112.178 -1.28708 109.608 57.3365 109.608 61.4734C109.608 65.4744 117.676 78.7522 122.46 85.4638Z" fill="url(#paint0_linear_32_986)" stroke="black"/>
<path d="M123.093 146.076C123.093 166.069 94.7055 188.274 75.541 188.274C56.3765 188.274 31.4158 169.282 31.4158 149.289C31.4158 129.297 35.5991 97.0244 54.7636 97.0244C73.9281 97.0244 123.093 126.084 123.093 146.076Z" fill="white"/>
<path d="M31.4159 143.506C31.4159 163.499 59.8037 185.704 78.9682 185.704C98.1327 185.704 123.093 166.712 123.093 146.719C123.093 126.727 118.91 94.4546 99.7456 94.4546C80.5811 94.4546 31.4159 123.514 31.4159 143.506Z" fill="white"/>
<path d="M39.7696 107.306C49.5371 89.1417 53.6926 69.1783 54.5494 61.4671C67.9012 57.5401 96.3183 52.0423 97.1751 61.4671C98.0319 70.8919 109.17 95.9533 115.382 107.306C86.1082 114.874 30.0021 125.47 39.7696 107.306Z" fill="white"/>
<path d="M101.714 165.522C101.714 141.522 86.997 117 73.8568 117C60.7167 117 45.9996 142.304 45.9996 165.522C45.9996 188.739 60.9795 195 73.8568 195C86.7342 195 101.714 189.522 101.714 165.522Z" fill="url(#paint1_linear_32_986)"/>
<path d="M89.5611 150.246C89.5823 149.385 89.5983 148.515 89.6102 147.643C89.4421 148.159 89.3648 149.052 89.5611 150.246Z" fill="url(#paint2_linear_32_986)"/>
<path d="M24 145C9.74017 135.899 14.3734 128.893 17.3011 124.306C20.2288 119.719 34.1621 123.378 48.4219 132.479C62.6818 141.581 71.8683 152.678 68.9405 157.265C66.0128 161.852 38.2598 154.101 24 145Z" fill="#151515"/>
<path d="M126.242 152C140.501 142.899 135.868 135.893 132.941 131.306C130.013 126.719 116.08 130.378 101.82 139.479C87.5599 148.581 78.3734 159.678 81.3011 164.265C84.2288 168.852 111.982 161.101 126.242 152Z" fill="#151515"/>
<path d="M46.6239 215.958C29.1452 208.418 14.4722 206.895 8.6174 206.752C0.734883 206.752 0.477795 197.899 1.33457 193.472C2.83398 190.83 5.1902 183.919 2.61981 177.407C0.0494092 170.895 6.9752 166.554 10.7594 165.198C16.4218 163.915 19.849 159.631 23.4904 154.704C32.2726 143.78 42.6752 159.2 48.0302 168.411C53.3851 177.621 62.2605 189.924 66.3303 195.181C69.8611 199.741 68.4723 225.383 46.6239 215.958Z" fill="url(#paint3_linear_32_986)" stroke="#EE8A35" stroke-width="2"/>
<path d="M67.1155 43.6262C67.1155 46.5863 66.0725 49.2627 64.5539 51.1931C63.0268 53.1342 61.0691 54.2646 59.2617 54.2646C57.4744 54.2646 55.7908 53.1562 54.5304 51.2286C53.273 49.3054 52.4789 46.6189 52.4789 43.6262C52.4789 40.6334 53.273 37.947 54.5304 36.0238C55.7908 34.0961 57.4744 32.9878 59.2617 32.9878C61.0691 32.9878 63.0268 34.1181 64.5539 36.0593C66.0725 37.9897 67.1155 40.6661 67.1155 43.6262Z" fill="white" stroke="black"/>
<path d="M64.7594 46.4102C64.7594 48.3104 64.1138 50.0254 63.1794 51.2579C62.2355 52.5028 61.051 53.193 59.9953 53.193C58.9607 53.193 57.9503 52.5263 57.1733 51.2934C56.4005 50.067 55.9062 48.3418 55.9062 46.4102C55.9062 44.4786 56.4005 42.7535 57.1733 41.5271C57.9503 40.2941 58.9607 39.6274 59.9953 39.6274C61.051 39.6274 62.2355 40.3176 63.1794 41.5626C64.1138 42.7951 64.7594 44.5101 64.7594 46.4102Z" fill="black" stroke="black"/>
<path d="M95.6042 43.8404C95.6042 47.0777 94.1987 50.5055 92.1209 53.1271C90.0327 55.7617 87.3533 57.4776 84.8715 57.4776C82.4469 57.4776 80.1375 55.5109 78.3986 52.5424C76.676 49.6015 75.6126 45.8326 75.6126 42.5552C75.6126 36.0397 80.5312 31.0601 85.6084 31.0601C88.1043 31.0601 90.5976 32.5778 92.4882 34.9808C94.3733 37.3768 95.6042 40.5896 95.6042 43.8404Z" fill="white" stroke="black"/>
<path d="M90.0349 45.5532C90.0349 47.6885 89.3012 49.6169 88.2372 51.0045C87.164 52.404 85.8076 53.1928 84.5842 53.1928C83.3815 53.1928 82.2216 52.427 81.3376 51.04C80.4573 49.6588 79.8965 47.7203 79.8965 45.5532C79.8965 43.386 80.4573 41.4475 81.3376 40.0663C82.2216 38.6793 83.3815 37.9136 84.5842 37.9136C85.8076 37.9136 87.164 38.7024 88.2372 40.1019C89.3012 41.4894 90.0349 43.4178 90.0349 45.5532Z" fill="black" stroke="black"/>
<path d="M83.3376 50.6887C73.056 42.8062 63.06 48.8323 59.3472 52.8307C57.5622 53.4733 53.5209 55.6582 51.636 59.2567C49.2798 63.7549 55.7058 68.0389 57.2052 69.1099C58.7046 70.1809 58.2762 71.2519 63.6312 74.0365C64.1453 76.7783 70.1286 77.1781 73.056 77.0353C74.127 77.3923 78.3253 76.7354 86.5505 71.2519C95.804 67.8247 97.6889 62.6839 97.4747 60.5419C98.5457 58.8283 97.2177 54.4586 83.3376 50.6887Z" fill="url(#paint4_linear_32_986)" stroke="#EE8A35" stroke-width="2"/>
<path d="M56.2629 61.4047C60.1899 66.1884 70.8713 73.9996 82.1811 66.9738C91.82 61.4047 90.9632 60.9763 93.1052 60.5479" stroke="#EE8A35" stroke-width="2"/>
<path d="M103.157 215.958C120.636 208.418 135.309 206.895 141.163 206.752C149.046 206.752 149.303 197.899 148.446 193.472C146.947 190.83 144.591 183.919 147.161 177.407C149.731 170.895 142.806 166.554 139.021 165.198C133.359 163.915 129.932 159.631 126.29 154.704C117.508 143.78 107.106 159.2 101.751 168.411C96.3956 177.621 87.5202 189.924 83.4505 195.181C79.9196 199.741 81.3084 225.383 103.157 215.958Z" fill="url(#paint5_linear_32_986)" stroke="#EE8A35" stroke-width="2"/>
<defs>
<linearGradient id="paint0_linear_32_986" x1="60.9753" y1="6.78365" x2="77.0618" y2="203.294" gradientUnits="userSpaceOnUse">
<stop stop-color="#383838"/>
<stop offset="1"/>
</linearGradient>
<linearGradient id="paint1_linear_32_986" x1="45.9996" y1="116.639" x2="101.577" y2="194.736" gradientUnits="userSpaceOnUse">
<stop offset="0.135417" stop-color="#EAEBB9"/>
<stop offset="0.46875" stop-color="#F876DE"/>
<stop offset="0.817708" stop-color="#9A4D7F"/>
</linearGradient>
<linearGradient id="paint2_linear_32_986" x1="52.9639" y1="131.934" x2="69.1919" y2="176.596" gradientUnits="userSpaceOnUse">
<stop offset="0.135417" stop-color="#EAEBB9"/>
<stop offset="0.46875" stop-color="#F876DE"/>
<stop offset="0.817708" stop-color="#9A4D7F"/>
</linearGradient>
<linearGradient id="paint3_linear_32_986" x1="34.4067" y1="150.94" x2="34.4067" y2="218.023" gradientUnits="userSpaceOnUse">
<stop stop-color="#FDA041"/>
<stop offset="1" stop-color="#FFE60F"/>
</linearGradient>
<linearGradient id="paint4_linear_32_986" x1="74.4427" y1="46.8394" x2="74.4427" y2="77.1152" gradientUnits="userSpaceOnUse">
<stop stop-color="#FCA643"/>
<stop offset="1" stop-color="#FFF607"/>
</linearGradient>
<linearGradient id="paint5_linear_32_986" x1="115.374" y1="150.94" x2="115.374" y2="218.023" gradientUnits="userSpaceOnUse">
<stop stop-color="#FDA041"/>
<stop offset="1" stop-color="#FFE60F"/>
</linearGradient>
</defs>
</svg>
