<svg width="211" height="306" viewBox="0 0 211 306" fill="none" xmlns="http://www.w3.org/2000/svg">
<path d="M171.79 118.376C202.449 150.227 209.296 184.756 202.449 207.974C202.449 262.947 152.262 292.511 103.921 278.223C42.0069 296.381 13.4311 247.564 12.5381 204.7C11.6451 161.836 58.2321 109.05 61.3554 96.9445C63.7361 87.7169 64.4313 61.3238 63.4392 48.425C62.3477 32.2517 70.4641 0.143435 111.661 1.09597C157.502 -2.17828 153.93 79.2889 153.93 85.0378C153.93 90.5979 165.142 109.05 171.79 118.376Z" fill="url(#paint0_linear_28_502)"/>
<path d="M202.449 207.974L201.97 207.833L201.949 207.902V207.974H202.449ZM171.79 118.376L171.383 118.667L171.404 118.697L171.429 118.723L171.79 118.376ZM153.93 85.0378L154.43 85.0378L153.93 85.0378ZM111.661 1.09597L111.65 1.59583L111.673 1.59638L111.697 1.5947L111.661 1.09597ZM63.4392 48.425L62.9403 48.4586L62.9406 48.4633L63.4392 48.425ZM61.3554 96.9445L60.8712 96.8196L61.3554 96.9445ZM12.5381 204.7L12.0382 204.71L12.5381 204.7ZM103.921 278.223L104.063 277.744L103.922 277.702L103.781 277.743L103.921 278.223ZM202.929 208.115C209.837 184.687 202.904 149.978 172.15 118.03L171.429 118.723C201.994 150.475 208.754 184.825 201.97 207.833L202.929 208.115ZM172.197 118.086C168.883 113.437 164.428 106.508 160.803 100.05C158.99 96.8205 157.39 93.7176 156.244 91.0817C155.087 88.4196 154.43 86.3116 154.43 85.0378L153.43 85.0378C153.43 86.544 154.174 88.8275 155.327 91.4803C156.491 94.1593 158.109 97.2948 159.931 100.539C163.574 107.029 168.048 113.989 171.383 118.667L172.197 118.086ZM154.43 85.0378C154.43 82.1857 155.326 60.3145 150.472 39.5693C148.046 29.1982 144.172 19.0542 137.987 11.7003C131.783 4.32358 123.261 -0.23387 111.625 0.597237L111.697 1.5947C122.981 0.78868 131.203 5.18679 137.222 12.3439C143.26 19.524 147.088 29.4921 149.499 39.7971C154.32 60.4042 153.43 82.1411 153.43 85.0378L154.43 85.0378ZM111.673 0.5961C90.9226 0.116331 78.4307 7.97238 71.2841 18.0491C64.1591 28.0953 62.3889 40.2882 62.9403 48.4586L63.938 48.3913C63.398 40.3885 65.1402 28.4406 72.0998 18.6276C79.0378 8.84491 91.2025 1.12307 111.65 1.59583L111.673 0.5961ZM62.9406 48.4633C63.4347 54.8869 63.5094 64.6894 63.1625 74.0429C62.815 83.4107 62.0463 92.265 60.8712 96.8196L61.8395 97.0694C63.0452 92.3965 63.8145 83.4404 64.1618 74.08C64.5095 64.7054 64.4358 54.8618 63.9377 48.3866L62.9406 48.4633ZM60.8712 96.8196C60.5002 98.2579 59.4647 100.353 57.8928 103.04C56.3289 105.713 54.2627 108.926 51.8661 112.587C47.0771 119.902 40.9807 128.987 35.0108 139.032C23.0835 159.103 11.5885 183.124 12.0382 204.71L13.038 204.689C12.5947 183.412 23.9467 159.608 35.8705 139.543C41.8261 129.521 47.9062 120.461 52.7028 113.134C55.099 109.474 57.1779 106.242 58.756 103.545C60.3262 100.86 61.4298 98.6576 61.8395 97.0694L60.8712 96.8196ZM12.0382 204.71C12.4866 226.233 19.8831 249.288 34.9897 264.695C50.1261 280.132 72.9453 287.829 104.062 278.703L103.781 277.743C72.9832 286.775 50.5571 279.143 35.7037 263.994C20.8205 248.816 13.4826 226.03 13.038 204.689L12.0382 204.71ZM103.78 278.703C128.085 285.886 152.872 282.051 171.592 269.486C190.321 256.916 202.949 235.626 202.949 207.974H201.949C201.949 235.295 189.485 256.273 171.035 268.656C152.576 281.045 128.099 284.848 104.063 277.744L103.78 278.703Z" fill="#222A38"/>
<path d="M172.67 202.608C172.67 230.391 133.22 261.248 106.588 261.248C79.9556 261.248 45.2686 234.856 45.2686 207.073C45.2686 179.29 51.082 134.442 77.7142 134.442C104.346 134.442 172.67 174.825 172.67 202.608Z" fill="white"/>
<path d="M45.2686 199.036C45.2686 226.819 84.7183 257.676 111.351 257.676C137.983 257.676 172.67 231.284 172.67 203.501C172.67 175.718 166.856 130.87 140.224 130.87C113.592 130.87 45.2686 171.253 45.2686 199.036Z" fill="white"/>
<path d="M56.8777 148.73C70.4512 123.488 76.226 95.7458 77.4166 85.0298C95.9711 79.5726 135.461 71.9325 136.652 85.0298C137.843 98.1271 153.321 132.954 161.954 148.73C121.273 159.248 43.3041 173.972 56.8777 148.73Z" fill="white"/>
<ellipse cx="57.1085" cy="205.194" rx="13.6926" ry="42.5663" transform="rotate(122.548 57.1085 205.194)" fill="#1A1A1A"/>
<path d="M66.4029 299.72C42.1133 289.242 21.7227 287.126 13.5865 286.927C2.63242 286.927 2.27516 274.624 3.46578 268.472C5.54946 264.801 8.82383 255.196 5.25184 246.147C1.67984 237.098 11.3044 231.065 16.5631 229.18C24.432 227.397 29.1946 221.444 34.2549 214.597C46.4593 199.416 60.9154 220.845 68.3571 233.645C75.7987 246.445 88.1325 263.542 93.7882 270.847C98.6948 277.184 96.7648 312.818 66.4029 299.72Z" fill="url(#paint1_linear_28_502)" stroke="#EE8A35" stroke-width="5"/>
<path d="M95.0742 60.236C95.0742 64.3946 93.6092 68.1561 91.4728 70.8719C89.3278 73.5985 86.5563 75.2146 83.9652 75.2146C81.3942 75.2146 79.0012 73.6205 77.2273 70.9074C75.4563 68.1988 74.3445 64.4273 74.3445 60.236C74.3445 56.0447 75.4563 52.2732 77.2273 49.5645C79.0012 46.8515 81.3942 45.2573 83.9652 45.2573C86.5563 45.2573 89.3278 46.8735 91.4728 49.6001C93.6092 52.3158 95.0742 56.0773 95.0742 60.236Z" fill="white" stroke="#222A38"/>
<path d="M91.7998 64.1055C91.7998 66.7893 90.8883 69.2138 89.5646 70.9598C88.2313 72.7183 86.534 73.7262 84.9846 73.7262C83.4561 73.7262 81.9986 72.7418 80.8981 70.9953C79.8017 69.2554 79.1072 66.8208 79.1072 64.1055C79.1072 61.3903 79.8017 58.9557 80.8981 57.2157C81.9986 55.4692 83.4561 54.4849 84.9846 54.4849C86.534 54.4849 88.2313 55.4927 89.5646 57.2512C90.8883 58.9972 91.7998 61.4217 91.7998 64.1055Z" fill="#222A38" stroke="#222A38"/>
<path d="M134.664 60.5337C134.664 65.0847 132.69 69.8897 129.781 73.56C126.862 77.2434 123.088 79.6796 119.554 79.6796C116.077 79.6796 112.817 76.8674 110.391 72.7249C107.981 68.6101 106.492 63.3388 106.492 58.7477C106.492 49.6046 113.397 42.5784 120.578 42.5784C124.126 42.5784 127.642 44.7329 130.292 48.1012C132.936 51.4625 134.664 55.969 134.664 60.5337Z" fill="white" stroke="#222A38"/>
<path d="M126.924 62.9148C126.924 65.926 125.89 68.6474 124.386 70.6089C122.873 72.5824 120.937 73.7261 119.155 73.7261C117.394 73.7261 115.729 72.6054 114.479 70.6444C113.233 68.6893 112.446 65.9578 112.446 62.9148C112.446 59.8718 113.233 57.1404 114.479 55.1853C115.729 53.2243 117.394 52.1035 119.155 52.1035C120.937 52.1035 122.873 53.2473 124.386 55.2208C125.89 57.1823 126.924 59.9037 126.924 62.9148Z" fill="#222A38" stroke="#222A38"/>
<path d="M117.423 70.0503C103.135 59.0962 89.2435 67.4705 84.0839 73.0269C81.6034 73.9199 75.9874 76.9561 73.368 81.9569C70.0936 88.2079 79.0236 94.1612 81.1073 95.6496C83.1909 97.1379 82.5956 98.6262 90.0373 102.496C90.7517 106.306 99.0665 106.862 103.135 106.663C104.623 107.159 110.457 106.246 121.888 98.6262C134.747 93.8636 137.366 86.7196 137.069 83.7429C138.557 81.3616 136.711 75.2892 117.423 70.0503Z" fill="url(#paint2_linear_28_502)" stroke="#EE8A35" stroke-width="3"/>
<path d="M79.7978 84.9421C85.255 91.59 100.099 102.445 115.815 92.6814C129.21 84.9421 128.02 84.3468 130.996 83.7515" stroke="#EE8A35" stroke-width="3"/>
<path d="M144.965 299.72C169.254 289.242 189.645 287.126 197.781 286.927C208.735 286.927 209.093 274.624 207.902 268.472C205.818 264.801 202.544 255.196 206.116 246.147C209.688 237.098 200.063 231.065 194.805 229.18C186.936 227.397 182.173 221.444 177.113 214.597C164.909 199.416 150.452 220.845 143.011 233.645C135.569 246.445 123.235 263.542 117.58 270.847C112.673 277.184 114.603 312.818 144.965 299.72Z" fill="url(#paint3_linear_28_502)" stroke="#EE8A35" stroke-width="5"/>
<path d="M195.908 213.236C195.908 221.127 182.132 230.799 173.583 230.799C165.035 230.799 160.188 222.318 160.188 214.427C160.188 206.536 159.379 199.246 167.928 199.246C176.476 199.246 195.908 205.345 195.908 213.236Z" fill="#0D0D0D"/>
<defs>
<linearGradient id="paint0_linear_28_502" x1="86.3465" y1="9.03735" x2="108.701" y2="282.121" gradientUnits="userSpaceOnUse">
<stop stop-color="#383838"/>
<stop offset="1"/>
</linearGradient>
<linearGradient id="paint1_linear_28_502" x1="49.425" y1="209.366" x2="49.425" y2="302.589" gradientUnits="userSpaceOnUse">
<stop stop-color="#FDA041"/>
<stop offset="1" stop-color="#FFE60F"/>
</linearGradient>
<linearGradient id="paint2_linear_28_502" x1="105.062" y1="64.7009" x2="105.062" y2="106.774" gradientUnits="userSpaceOnUse">
<stop stop-color="#FCA643"/>
<stop offset="1" stop-color="#FFF607"/>
</linearGradient>
<linearGradient id="paint3_linear_28_502" x1="161.943" y1="209.366" x2="161.943" y2="302.589" gradientUnits="userSpaceOnUse">
<stop stop-color="#FDA041"/>
<stop offset="1" stop-color="#FFE60F"/>
</linearGradient>
</defs>
</svg>
