<svg
  width="284"
  height="206"
  viewBox="0 0 284 206"
  fill="none"
  xmlns="http://www.w3.org/2000/svg"
>
  <path
    d="M241.243 85.0204C245.048 104.945 239.028 119.932 230.579 127.141C216.806 148.271 190.108 147.061 175.107 129.457C146.759 120.924 148.006 94.9997 158.403 78.3002C168.799 61.6006 199.931 52.9836 204.165 49.113C207.392 46.1627 214.272 36.192 217.123 30.9854C220.755 24.4954 231.92 14.1873 247.516 24.8754C265.957 35.1023 244.172 65.5213 242.732 67.731C241.338 69.8681 241.025 79.7697 241.243 85.0204Z"
    fill="url(#paint0_linear_2_32)"
    stroke="black"
  />
  <path
    d="M220.477 117.618C213.516 128.297 190.622 130.273 180.385 123.601C170.148 116.928 163.428 98.0924 170.389 87.4133C177.35 76.7343 190.821 60.9525 201.058 67.6253C211.295 74.298 227.438 106.939 220.477 117.618Z"
    fill="white"
  />
  <path
    d="M172.403 84.3241C165.441 95.0032 172.874 116.748 183.11 123.421C193.347 130.094 213.293 128.64 220.254 117.961C227.215 107.282 236.217 88.5869 225.98 81.9142C215.743 75.2415 179.364 73.645 172.403 84.3241Z"
    fill="white"
  />
  <path
    d="M189.469 67.8966C201.011 61.595 210.181 52.3784 213.324 48.5577C221.823 51.109 238.916 58.0666 236.092 63.3992C233.268 68.7318 230.492 85.9967 229.857 94.2235C211.585 88.0735 177.927 74.1981 189.469 67.8966Z"
    fill="white"
  />
  <path
    d="M226.096 43.3036C225.089 44.8497 223.633 45.8912 222.187 46.381C220.728 46.8751 219.352 46.7878 218.448 46.1988C217.561 45.6207 217.062 44.5117 217.06 43.0813C217.058 41.6562 217.556 39.9787 218.582 38.4053C219.607 36.8319 220.941 35.6991 222.246 35.1257C223.555 34.5503 224.772 34.5593 225.658 35.1373C226.562 35.7263 227.197 36.9506 227.334 38.4849C227.47 40.0056 227.104 41.7576 226.096 43.3036Z"
    fill="white"
    stroke="black"
  />
  <path
    d="M223.868 43.9706C223.229 44.9519 222.319 45.6183 221.427 45.9382C220.521 46.2634 219.712 46.2077 219.213 45.882C218.731 45.5678 218.435 44.932 218.449 44.0393C218.463 43.1543 218.786 42.0936 219.443 41.0859C220.1 40.0783 220.94 39.3541 221.744 38.9845C222.555 38.6116 223.256 38.6253 223.738 38.9395C224.238 39.2652 224.615 39.9823 224.683 40.9429C224.75 41.8878 224.508 42.9892 223.868 43.9706Z"
    fill="black"
    stroke="black"
  />
  <path
    d="M241.239 53.3372C240.139 55.0256 238.231 56.3454 236.239 57.012C234.232 57.6839 232.268 57.6527 231.009 56.8318C229.797 56.042 229.248 54.2748 229.352 52.1023C229.454 49.9618 230.189 47.6099 231.312 45.8879C233.535 42.4766 237.788 41.5769 240.403 43.2809C241.674 44.1096 242.461 45.7271 242.631 47.6349C242.8 49.5338 242.347 51.6374 241.239 53.3372Z"
    fill="white"
    stroke="black"
  />
  <path
    d="M237.668 52.3137C236.946 53.4202 235.916 54.1699 234.901 54.5277C233.872 54.8904 232.937 54.8283 232.347 54.4437C231.774 54.0705 231.434 53.3288 231.444 52.317C231.455 51.3123 231.817 50.1147 232.556 48.9816C233.294 47.8484 234.244 47.0336 235.159 46.6186C236.08 46.2008 236.896 46.2126 237.469 46.5859C238.059 46.9705 238.493 47.801 238.577 48.8887C238.659 49.9615 238.389 51.2072 237.668 52.3137Z"
    fill="black"
    stroke="black"
  />
  <path
    d="M232.454 52.8232C229.707 45.0328 222.269 44.7713 218.894 45.6143C217.717 45.336 214.797 45.096 212.538 46.3618C209.713 47.9442 211.654 52.4699 212.082 53.564C212.51 54.6582 211.908 55.0811 213.799 58.433C213.119 60.0765 216.176 62.3734 217.789 63.3164C218.237 63.88 220.708 64.9909 227.011 64.9257C233.147 66.317 235.944 64.2273 236.575 63.0086C237.744 62.4662 238.556 59.6697 232.454 52.8232Z"
    fill="url(#paint1_linear_2_32)"
    stroke="#EE8A35"
  />
  <path
    d="M214.261 49.1204C214.693 53.043 217.679 60.9344 226.166 61.1194C233.254 61.5008 232.946 60.9736 234.239 61.4906"
    stroke="#EE8A35"
  />
  <path
    d="M49.081 111.148H35.7663L62.3958 205.584L102.093 196.214C192.436 205.288 241.816 190.954 255.213 182.653C258.007 173.694 259.75 146.654 244.364 110.162C228.978 73.6694 194.064 55.0124 178.53 50.2454C159.708 46.3825 116.592 42.799 94.6963 59.3684C71.4202 68.6394 54.5877 97.7511 49.081 111.148Z"
    fill="#F0F5FF"
  />
  <path
    d="M1 189.557L15.301 193.009C13.9038 174.681 14.7586 138.024 29.3555 138.024C43.9524 138.024 45.3003 179.776 44.1496 200.653L62.3958 205.584C64.1217 191.694 65.0094 157.75 54.7521 133.093C44.4948 108.436 30.7527 108.682 25.1638 111.888C19.0817 115.011 6.47384 123.624 4.69854 133.093C3.1205 132.895 1.57533 170.653 1 189.557Z"
    fill="#EEF5FF"
  />
  <path
    d="M27.4956 137.808C42.1909 136.615 44.7743 170.464 44.355 187.787L15.4173 193.009C16.4238 190.274 9.12656 139.3 27.4956 137.808Z"
    fill="#BDCEE6"
  />
  <path
    d="M75.4639 112.627L35.7663 110.901C41.3552 113.121 50.807 121.75 55.7384 135.805C60.6698 149.859 65.8477 188.078 62.1492 205.337L101.107 196.707C101.6 179.448 100.466 142.265 94.9429 131.613C89.4197 120.961 78.9159 115.34 75.4639 112.627Z"
    fill="#D4DDEE"
  />
  <path
    d="M110.97 51.4782C121.266 50.2424 153.389 48.6705 179.08 51.6364M77.4365 71.2037C103.177 67.9082 169.916 63.048 215.022 70.9572M61.656 88.4636C88.3767 86.0744 159.714 82.7294 231.296 88.4636"
    stroke="black"
    stroke-width="0.7"
  />
  <path
    d="M48.0947 111.148C98.9702 109.833 209.647 107.745 244.364 110.901"
    stroke="black"
    stroke-width="0.7"
  />
  <path
    d="M97.9017 140.49C103.407 140.61 110.733 140.908 117.631 140.971M252.501 132.6C251.973 132.797 249.685 133.436 249.084 133.625M100.861 169.585C104.475 170.139 110.442 170.886 115.659 171.368M256.692 160.462C255.296 160.821 252.176 161.615 250.779 161.955M115.659 171.368V197.94M115.659 171.368C127.895 172.498 144.169 173.26 162.753 172.864M162.753 172.864V199.666M162.753 172.864C170.555 172.698 178.764 172.328 187.252 171.695M205.41 169.965V197.201M205.41 169.965C211.417 169.264 217.513 168.423 223.656 167.423M205.41 169.965C199.25 170.683 193.183 171.253 187.252 171.695M238.943 164.609V190.297M249.084 133.625L250.779 161.955M249.084 133.625C243.405 135.407 234.497 136.789 223.656 137.851M250.779 161.955C241.72 164.157 232.637 165.96 223.656 167.423M223.656 137.851V167.423M223.656 137.851C212.494 138.944 199.283 139.698 185.438 140.197M185.438 140.197L187.252 171.695M185.438 140.197C170.04 140.752 153.857 140.992 138.836 141.036M138.836 141.036V172.755M138.836 141.036C131.405 141.058 124.258 141.031 117.631 140.971M119.846 109.422C118.531 117.418 116.053 135.871 117.631 140.971"
    stroke="black"
    stroke-width="0.7"
  />
  <path
    d="M160.781 109.374L164.229 140.736M199.492 109.374L205.899 139.257M230.063 109.915L239.683 135.51M230.067 88.6621L239.926 110.408M206.396 86.9361L216.752 109.374M176.804 85.5047L181.986 109.374M141.055 85.2581V109.374M106.532 85.7513L101.354 109.915M78.1762 87.2307L69.5463 110.408M104.07 68.4434L93.2169 86.491M80.6419 70.7105L64.1217 88.217M128.476 67.012L123.795 85.2101M156.092 66.5189L160.037 85.2581M182.722 67.2586L190.862 86.1964M206.885 69.7243L217.981 87.7238M178.534 51.4302L195.05 68.2448M160.037 50.2453L169.407 66.7654M144.503 49.9987L143.024 66.7654M126.508 50.6904L114.919 67.4572M112.942 51.4781L92.7238 69.4777"
    stroke="black"
    stroke-width="0.7"
  />
  <path
    d="M43.641 200.385L61.9141 205.498M61.9141 205.498L101.119 196.868C102.351 177.553 99.8588 139.729 95.4475 132.513C90.7357 122.716 80.6534 115.254 75.2289 112.788L34.5449 110.815M61.9141 205.498C66.5989 193.416 61.9141 151.499 54.2704 132.513C48.1555 117.325 38.5722 111.719 34.5449 110.815M34.5449 110.815C20.2439 108.843 6.65562 126.168 4.71003 132.513C2.46394 136.277 0.847114 171.471 1.01149 189.471L15.5591 193.169L44.1341 187.563"
    stroke="black"
    stroke-width="0.7"
  />
  <path
    d="M15.3125 192.923C13.9975 175.088 14.3756 139.171 26.4082 138.185C41.4489 136.952 45.6405 161.116 43.668 200.567"
    stroke="black"
    stroke-width="0.7"
  />
  <path
    d="M1.50462 174.43L15.0659 177.389L43.903 173.037M44.1341 184.605L63.8867 187.745L101.6 180.681M43.3944 165.372L61.6675 169.006L100.845 163.153M40.189 149.838L54.2705 135.226L94.6963 131.12M32.0792 138.924L37.2457 111.888M18.753 115.586L23.1912 139.503M5.43823 130.874L18.5179 147.308M1.50462 158.157L15.0659 160.869L41.942 156.431"
    stroke="black"
    stroke-width="0.7"
  />
  <path
    d="M101.354 196.214C140.312 200.324 225.131 203.616 255.706 181.918C262.857 137.289 241.405 79.0989 188.393 53.2091C137.304 39.5985 104.148 51.6475 93.9566 59.3733C84.8336 63.565 62.9382 79.74 48.3413 110.906"
    stroke="black"
    stroke-width="0.7"
  />
  <defs>
    <linearGradient
      id="paint0_linear_2_32"
      x1="235.796"
      y1="21.5853"
      x2="175.968"
      y2="132.153"
      gradientUnits="userSpaceOnUse"
    >
      <stop stop-color="#383838" />
      <stop offset="1" />
    </linearGradient>
    <linearGradient
      id="paint1_linear_2_32"
      x1="229.043"
      y1="47.67"
      x2="218.502"
      y2="63.8419"
      gradientUnits="userSpaceOnUse"
    >
      <stop stop-color="#FCA643" />
      <stop offset="1" stop-color="#FFF607" />
    </linearGradient>
  </defs>
</svg>
