<svg width="188" height="220" viewBox="0 0 188 220" fill="none" xmlns="http://www.w3.org/2000/svg">
<path d="M133.46 85.4638C155.523 108.383 160.449 133.23 155.523 149.938C155.523 189.496 119.408 210.771 84.6222 200.489C40.0686 213.555 19.5055 178.427 18.8629 147.582C18.2203 116.737 51.7442 78.7526 53.9917 70.0414C55.7049 63.4012 56.2052 44.4089 55.4912 35.1269C54.7058 23.4887 60.5463 0.383618 90.1915 1.06906C123.178 -1.28708 120.608 57.3365 120.608 61.4734C120.608 65.4744 128.676 78.7522 133.46 85.4638Z" fill="url(#paint0_linear_211_1515)" stroke="black"/>
<path d="M134.093 146.077C134.093 166.07 105.705 188.274 86.541 188.274C67.3765 188.274 42.4158 169.283 42.4158 149.29C42.4158 129.298 46.5991 97.0254 65.7636 97.0254C84.9281 97.0254 134.093 126.085 134.093 146.077Z" fill="white"/>
<path d="M42.4159 143.507C42.4159 163.499 70.8037 185.704 89.9682 185.704C109.133 185.704 134.093 166.712 134.093 146.72C134.093 126.727 129.91 94.4551 110.746 94.4551C91.5811 94.4551 42.4159 123.514 42.4159 143.507Z" fill="white"/>
<path d="M50.7696 107.306C60.5371 89.1422 64.6926 69.1788 65.5494 61.4676C78.9012 57.5406 107.318 52.0428 108.175 61.4676C109.032 70.8923 120.17 95.9538 126.382 107.306C97.1082 114.875 41.0021 125.47 50.7696 107.306Z" fill="white"/>
<path d="M112.714 165.522C112.714 141.522 97.997 117 84.8568 117C71.7166 117 56.9996 142.304 56.9996 165.522C56.9996 188.739 71.9794 195 84.8568 195C97.7342 195 112.714 189.522 112.714 165.522Z" fill="url(#paint1_linear_211_1515)"/>
<path d="M39.0028 115.046C45.521 130.656 37.7187 133.766 32.6971 135.863C27.6755 137.96 18.3206 127.005 11.8024 111.394C5.28409 95.7838 4.0708 81.4291 9.09238 79.3323C14.114 77.2356 32.4845 99.4351 39.0028 115.046Z" fill="#151515"/>
<path d="M141.905 115.904C131.92 129.56 138.779 134.407 143.172 137.619C147.564 140.831 159.22 132.365 169.206 118.71C179.191 105.054 183.725 91.3805 179.332 88.1684C174.94 84.9563 151.89 102.249 141.905 115.904Z" fill="#151515"/>
<path d="M57.6239 215.958C40.1452 208.418 25.4722 206.895 19.6174 206.752C11.7349 206.752 11.4778 197.898 12.3346 193.472C13.834 190.83 16.1902 183.918 13.6198 177.407C11.0494 170.895 17.9752 166.554 21.7594 165.197C27.4218 163.914 30.849 159.63 34.4904 154.704C43.2726 143.779 53.6752 159.2 59.0302 168.41C64.3851 177.621 73.2605 189.924 77.3303 195.18C80.8611 199.741 79.4723 225.383 57.6239 215.958Z" fill="url(#paint2_linear_211_1515)" stroke="#EE8A35" stroke-width="2"/>
<path d="M78.1155 43.6257C78.1155 46.5858 77.0725 49.2622 75.5539 51.1926C74.0268 53.1337 72.0691 54.2641 70.2617 54.2641C68.4744 54.2641 66.7908 53.1557 65.5304 51.2281C64.273 49.3049 63.4789 46.6185 63.4789 43.6257C63.4789 40.6329 64.273 37.9465 65.5304 36.0233C66.7908 34.0957 68.4744 32.9873 70.2617 32.9873C72.0691 32.9873 74.0268 34.1176 75.5539 36.0588C77.0725 37.9892 78.1155 40.6656 78.1155 43.6257Z" fill="white" stroke="black"/>
<path d="M75.7593 46.4097C75.7593 48.3099 75.1137 50.0249 74.1793 51.2574C73.2354 52.5024 72.0509 53.1925 70.9953 53.1925C69.9606 53.1925 68.9502 52.5258 68.1733 51.2929C67.4005 50.0665 66.9061 48.3414 66.9061 46.4097C66.9061 44.4781 67.4005 42.753 68.1733 41.5266C68.9502 40.2937 69.9606 39.627 70.9953 39.627C72.0509 39.627 73.2354 40.3171 74.1793 41.5621C75.1137 42.7946 75.7593 44.5096 75.7593 46.4097Z" fill="black" stroke="black"/>
<path d="M106.604 43.8409C106.604 47.0781 105.199 50.506 103.121 53.1276C101.033 55.7622 98.3533 57.4781 95.8715 57.4781C93.4469 57.4781 91.1375 55.5113 89.3986 52.5428C87.676 49.602 86.6126 45.833 86.6126 42.5557C86.6126 36.0402 91.5312 31.0605 96.6084 31.0605C99.1043 31.0605 101.598 32.5782 103.488 34.9813C105.373 37.3773 106.604 40.5901 106.604 43.8409Z" fill="white" stroke="black"/>
<path d="M101.035 45.5537C101.035 47.689 100.301 49.6174 99.2372 51.005C98.164 52.4045 96.8076 53.1932 95.5842 53.1932C94.3815 53.1932 93.2216 52.4275 92.3376 51.0405C91.4573 49.6593 90.8965 47.7208 90.8965 45.5537C90.8965 43.3865 91.4573 41.448 92.3376 40.0668C93.2216 38.6798 94.3815 37.9141 95.5842 37.9141C96.8076 37.9141 98.164 38.7028 99.2372 40.1024C100.301 41.4899 101.035 43.4183 101.035 45.5537Z" fill="black" stroke="black"/>
<path d="M94.3376 50.6883C84.056 42.8057 74.06 48.8319 70.3472 52.8302C68.5622 53.4728 64.5209 55.6577 62.636 59.2562C60.2798 63.7544 66.7058 68.0384 68.2052 69.1094C69.7046 70.1804 69.2762 71.2514 74.6312 74.036C75.1453 76.7778 81.1286 77.1776 84.056 77.0348C85.127 77.3918 89.3253 76.7349 97.5505 71.2514C106.804 67.8242 108.689 62.6834 108.475 60.5414C109.546 58.8278 108.218 54.4582 94.3376 50.6883Z" fill="url(#paint3_linear_211_1515)" stroke="#EE8A35" stroke-width="2"/>
<path d="M67.2629 61.4037C71.1899 66.1875 81.8713 73.9986 93.1811 66.9729C102.82 61.4037 101.963 60.9753 104.105 60.5469" stroke="#EE8A35" stroke-width="2"/>
<path d="M114.157 215.958C131.636 208.418 146.309 206.895 152.163 206.752C160.046 206.752 160.303 197.898 159.446 193.472C157.947 190.83 155.591 183.918 158.161 177.407C160.731 170.895 153.806 166.554 150.021 165.197C144.359 163.914 140.932 159.63 137.29 154.704C128.508 143.779 118.106 159.2 112.751 168.41C107.396 177.621 98.5202 189.924 94.4505 195.18C90.9196 199.741 92.3084 225.383 114.157 215.958Z" fill="url(#paint4_linear_211_1515)" stroke="#EE8A35" stroke-width="2"/>
<defs>
<linearGradient id="paint0_linear_211_1515" x1="71.9753" y1="6.78365" x2="88.0617" y2="203.294" gradientUnits="userSpaceOnUse">
<stop stop-color="#383838"/>
<stop offset="1"/>
</linearGradient>
<linearGradient id="paint1_linear_211_1515" x1="56.9996" y1="116.639" x2="112.577" y2="194.736" gradientUnits="userSpaceOnUse">
<stop offset="0.135417" stop-color="#EAEBB9"/>
<stop offset="0.46875" stop-color="#F876DE"/>
<stop offset="0.817708" stop-color="#9A4D7F"/>
</linearGradient>
<linearGradient id="paint2_linear_211_1515" x1="45.4067" y1="150.939" x2="45.4067" y2="218.022" gradientUnits="userSpaceOnUse">
<stop stop-color="#FDA041"/>
<stop offset="1" stop-color="#FFE60F"/>
</linearGradient>
<linearGradient id="paint3_linear_211_1515" x1="85.4427" y1="46.8389" x2="85.4427" y2="77.1147" gradientUnits="userSpaceOnUse">
<stop stop-color="#FCA643"/>
<stop offset="1" stop-color="#FFF607"/>
</linearGradient>
<linearGradient id="paint4_linear_211_1515" x1="126.374" y1="150.939" x2="126.374" y2="218.022" gradientUnits="userSpaceOnUse">
<stop stop-color="#FDA041"/>
<stop offset="1" stop-color="#FFE60F"/>
</linearGradient>
</defs>
</svg>
