<svg width="145" height="83" viewBox="0 0 145 83" fill="none" xmlns="http://www.w3.org/2000/svg">
<path d="M24.5231 32.3851H18.009L31.0372 78.5869L50.4589 74.0029C94.6582 78.4422 118.817 71.4295 125.371 67.3682C126.738 62.9853 127.591 49.756 120.063 31.9026C112.536 14.0492 95.4543 4.9214 87.8546 2.5892C78.6464 0.699307 57.552 -1.05387 46.8399 7.05256C35.4523 11.5883 27.2172 25.8308 24.5231 32.3851Z" fill="#F0F5FF"/>
<path d="M1 70.7456L7.99662 72.4344C7.31304 63.4675 7.73123 45.5337 14.8726 45.5337C22.014 45.5337 22.6734 65.9606 22.1105 76.174L31.0372 78.5866C31.8816 71.7911 32.3159 55.1842 27.2976 43.121C22.2794 31.0579 15.5562 31.1785 12.8219 32.7467C9.8463 34.2747 3.67802 38.4888 2.80947 43.121C2.03743 43.0245 1.28147 61.4972 1 70.7456Z" fill="#EEF5FF"/>
<path d="M13.9627 45.4281C21.1522 44.8442 22.4161 61.4049 22.211 69.8798L8.05353 72.4345C8.54597 71.0964 4.97585 46.158 13.9627 45.4281Z" fill="#BDCEE6"/>
<path d="M37.4307 33.1091L18.009 32.2646C20.7433 33.3503 25.3675 37.5724 27.7802 44.4484C30.1928 51.3244 32.7261 70.0223 30.9166 78.4664L49.9763 74.2444C50.2176 65.8002 49.6627 47.609 46.9606 42.3977C44.2584 37.1864 39.1195 34.436 37.4307 33.1091Z" fill="#D4DDEE"/>
<path d="M54.8016 3.19219C59.8388 2.58758 75.5546 1.81855 88.1237 3.26961M38.3957 12.8427C50.9888 11.2304 83.6401 8.85258 105.708 12.7221M30.6753 21.2869C43.7481 20.118 78.6489 18.4815 113.67 21.2869" stroke="black" stroke-width="0.5"/>
<path d="M24.0405 32.3849C48.9308 31.7415 103.078 30.7201 120.063 32.2642" stroke="black" stroke-width="0.5"/>
<path d="M48.4082 46.7401C51.1018 46.7989 54.6856 46.9447 58.0606 46.9755M124.044 42.8799C123.786 42.9767 122.667 43.289 122.372 43.3814M49.8558 60.9746C51.6243 61.2457 54.5432 61.6113 57.0955 61.847M126.095 56.5112C125.412 56.6868 123.885 57.0755 123.202 57.2417M57.0955 61.847V74.8472M57.0955 61.847C63.0819 62.3998 71.0439 62.7726 80.1361 62.579M80.1361 62.579V75.6916M80.1361 62.579C83.953 62.4977 87.969 62.3166 92.1217 62.0071M101.005 61.1605V74.4853M101.005 61.1605C103.944 60.8178 106.927 60.4062 109.932 59.9167M101.005 61.1605C97.9917 61.5119 95.0233 61.7908 92.1217 62.0071M117.411 58.54V71.1076M122.372 43.3814L123.202 57.2417M122.372 43.3814C119.594 44.2531 115.236 44.9296 109.932 45.4491M123.202 57.2417C118.77 58.3188 114.326 59.201 109.932 59.9167M109.932 45.4491V59.9167M109.932 45.4491C104.471 45.984 98.0079 46.3526 91.2342 46.5967M91.2342 46.5967L92.1217 62.0071M91.2342 46.5967C83.7009 46.8683 75.7837 46.9859 68.4349 47.0074M68.4349 47.0074V62.5257M68.4349 47.0074C64.7993 47.018 61.3027 47.005 58.0606 46.9755M59.1444 31.5405C58.501 35.4527 57.2886 44.4804 58.0606 46.9755" stroke="black" stroke-width="0.5"/>
<path d="M79.171 31.5174L80.8579 46.8611M98.1101 31.5174L101.245 46.1373M113.066 31.7822L117.773 44.3043M113.068 21.3844L117.892 32.0234M101.488 20.54L106.554 31.5174M87.0101 19.8397L89.5453 31.5174M69.5205 19.719V31.5174M52.6302 19.9603L50.0969 31.7822M38.7576 20.6841L34.5355 32.0234M51.4258 11.4926L46.1161 20.3222M39.9639 12.6018L31.8816 21.1666M63.3664 10.7923L61.0763 19.6956M76.8771 10.551L78.8072 19.719M89.9053 10.9129L93.888 20.1781M101.727 12.1193L107.156 20.9253M87.8564 3.16907L95.9368 11.3955M78.8072 2.58938L83.3912 10.6717M71.2074 2.46875L70.4836 10.6717M62.4032 2.80717L56.7335 11.0101M55.7666 3.19254L45.8748 11.9986" stroke="black" stroke-width="0.5"/>
<path d="M21.8616 76.043L30.8016 78.5445M30.8016 78.5445L49.9819 74.3224C50.5851 64.873 49.3656 46.3677 47.2074 42.8376C44.9022 38.0442 39.9695 34.3935 37.3157 33.1871L17.4115 32.2221M30.8016 78.5445C33.0936 72.6336 30.8016 52.1263 27.062 42.8376C24.0703 35.4068 19.3818 32.6644 17.4115 32.2221M17.4115 32.2221C10.4149 31.257 3.76695 39.733 2.81509 42.8376C1.71622 44.6789 0.925202 61.8974 1.00562 70.7035L8.12287 72.513L22.1029 69.7702" stroke="black" stroke-width="0.5"/>
<path d="M8.0022 72.392C7.35883 63.6664 7.5438 46.0944 13.4306 45.6119C20.7891 45.0087 22.8398 56.8306 21.8748 76.1316" stroke="black" stroke-width="0.5"/>
<path d="M1.24683 63.3448L7.88155 64.7924L21.9898 62.6632M22.1029 68.3225L31.7666 69.8589L50.2175 66.4027M21.741 58.9132L30.6809 60.6909L49.8481 57.8276M20.1728 51.3135L27.0619 44.1644L46.8398 42.1558M16.2051 45.9739L18.7327 32.7466M9.68539 34.5561L11.8568 46.2573M3.1713 42.0352L9.57039 50.0754M1.24683 55.3832L7.88155 56.7101L21.0304 54.5387" stroke="black" stroke-width="0.5"/>
<path d="M50.0969 74.0029C69.1566 76.0135 110.654 77.6243 125.612 67.0087C129.11 45.1745 118.615 16.7055 92.6797 4.0392C67.6849 -2.61965 51.464 3.2752 46.4779 7.05498C42.0146 9.10571 31.3025 17.0191 24.1611 32.2669" stroke="black" stroke-width="0.5"/>
<path d="M92.2333 75.5801C92.2333 75.5801 95.2027 73.361 99.6569 72.7798H125.984C130.44 73.3639 134.11 75.6458 134.11 75.6458C134.11 75.6458 135.001 78.1414 134.11 79.8406C133.219 81.5397 117.031 83.8761 115.595 81.8583C114.16 79.8406 114.704 74.0528 114.704 74.0528L111.634 73.995C111.634 73.995 112.178 79.7541 110.743 81.7619C109.307 83.7696 93.1241 81.4449 92.2333 79.7541C91.3425 78.0634 92.2333 75.5801 92.2333 75.5801Z" fill="url(#paint0_linear_524_1240)"/>
<path d="M92.4313 76.0028C92.4313 76.0028 94.5594 78.486 103.319 77.6935M134.003 76.0028C134.003 76.0028 132.568 78.2747 122.076 77.9048M99.6569 72.7798C95.2027 73.361 92.2333 75.5801 92.2333 75.5801C92.2333 75.5801 91.3425 78.0634 92.2333 79.7541C93.1241 81.4449 109.307 83.7696 110.743 81.7619C112.178 79.7541 111.634 73.995 111.634 73.995L114.704 74.0528C114.704 74.0528 114.16 79.8406 115.595 81.8583C117.031 83.8761 133.219 81.5397 134.11 79.8406C135.001 78.1414 134.11 75.6458 134.11 75.6458C134.11 75.6458 130.44 73.3639 125.984 72.7798H99.6569Z" stroke="#EE8A35" stroke-width="0.5"/>
<path d="M127.677 38.3688C134.565 45.524 136.103 53.281 134.565 58.4969C134.565 70.8466 123.29 77.4883 112.43 74.2785C98.521 78.3577 92.1014 67.3908 91.9008 57.7614C91.7002 48.1319 102.166 36.2736 102.868 33.5541C103.402 31.4811 103.559 25.5518 103.336 22.6541C103.091 19.0207 104.914 11.8076 114.169 12.0216C124.467 11.286 123.665 29.5877 123.665 30.8792C123.665 32.1283 126.183 36.2735 127.677 38.3688Z" fill="url(#paint1_linear_524_1240)" stroke="black"/>
<path d="M127.875 57.292C127.875 63.5335 119.012 70.4656 113.029 70.4656C107.046 70.4656 99.2539 64.5365 99.2539 58.2951C99.2539 52.0536 100.56 41.9785 106.543 41.9785C112.526 41.9785 127.875 51.0505 127.875 57.292Z" fill="white"/>
<path d="M99.2537 56.4897C99.2537 62.7312 108.116 69.6633 114.099 69.6633C120.082 69.6633 127.875 63.7343 127.875 57.4928C127.875 51.2513 126.569 41.1763 120.586 41.1763C114.603 41.1763 99.2537 50.2483 99.2537 56.4897Z" fill="white"/>
<path d="M101.862 45.1884C104.911 39.5178 106.208 33.2854 106.476 30.878C110.644 29.6521 119.516 27.9357 119.783 30.878C120.051 33.8203 123.528 41.6443 125.467 45.1884C116.328 47.5512 98.8124 50.8591 101.862 45.1884Z" fill="white"/>
<ellipse cx="92.6932" cy="50.2686" rx="3.07607" ry="9.56256" transform="rotate(42.0966 92.6932 50.2686)" fill="#191919"/>
<path d="M110.055 25.3074C110.055 26.1519 109.757 26.9131 109.329 27.457C108.892 28.0118 108.371 28.2847 107.947 28.2847C107.543 28.2847 107.112 28.0338 106.758 27.4926C106.407 26.9558 106.173 26.1846 106.173 25.3074C106.173 24.4302 106.407 23.659 106.758 23.1222C107.112 22.5809 107.543 22.3301 107.947 22.3301C108.371 22.3301 108.892 22.6029 109.329 23.1577C109.757 23.7017 110.055 24.4628 110.055 25.3074Z" fill="white" stroke="black"/>
<path d="M109.319 26.1769C109.319 26.6939 109.143 27.1566 108.896 27.4825C108.639 27.821 108.36 27.9506 108.176 27.9506C108.013 27.9506 107.792 27.8445 107.586 27.5181C107.384 27.1981 107.243 26.7253 107.243 26.1769C107.243 25.6286 107.384 25.1557 107.586 24.8358C107.792 24.5093 108.013 24.4033 108.176 24.4033C108.36 24.4033 108.639 24.5328 108.896 24.8713C109.143 25.1973 109.319 25.66 109.319 26.1769Z" fill="black" stroke="black"/>
<path d="M118.949 25.3745C118.949 26.2928 118.546 27.2897 117.936 28.0601C117.315 28.8435 116.567 29.288 115.942 29.288C115.374 29.288 114.743 28.8137 114.218 27.9173C113.709 27.0487 113.396 25.9316 113.396 24.9733C113.396 23.0957 114.809 21.7285 116.172 21.7285C116.811 21.7285 117.5 22.1221 118.05 22.8213C118.594 23.5134 118.949 24.4426 118.949 25.3745Z" fill="white" stroke="black"/>
<path d="M117.21 25.9093C117.21 26.4986 117.007 27.0274 116.72 27.4018C116.424 27.7882 116.091 27.9504 115.852 27.9504C115.635 27.9504 115.367 27.8112 115.129 27.4374C114.894 27.0693 114.733 26.5304 114.733 25.9093C114.733 25.2881 114.894 24.7492 115.129 24.3812C115.367 24.0073 115.635 23.8682 115.852 23.8682C116.091 23.8682 116.424 24.0303 116.72 24.4167C117.007 24.7911 117.21 25.3199 117.21 25.9093Z" fill="black" stroke="black"/>
<path d="M115.463 27.5108C112.253 25.05 109.133 26.9313 107.974 28.1795C107.416 28.3801 106.155 29.0622 105.566 30.1857C104.831 31.59 106.837 32.9274 107.305 33.2617C107.773 33.5961 107.639 33.9304 109.311 34.7998C109.471 35.6557 111.339 35.7805 112.253 35.736C112.588 35.8474 113.898 35.6423 116.466 33.9304C119.355 32.8605 119.943 31.2556 119.877 30.5869C120.211 30.0519 119.796 28.6877 115.463 27.5108Z" fill="url(#paint2_linear_524_1240)" stroke="#EE8A35" stroke-width="3"/>
<path d="M107.011 30.8568C108.237 32.3503 111.571 34.7889 115.102 32.5955C118.111 30.8568 117.844 30.7231 118.513 30.5894" stroke="#EE8A35" stroke-width="3"/>
<path d="M127.677 38.3688C134.565 45.524 136.103 53.281 134.565 58.4969C134.565 70.8466 123.29 77.4883 112.43 74.2785C98.521 78.3577 92.1014 67.3908 91.9008 57.7614C91.7002 48.1319 102.166 36.2736 102.868 33.5541C103.402 31.4811 103.559 25.5518 103.336 22.6541C103.091 19.0207 104.914 11.8076 114.169 12.0216C124.467 11.286 123.665 29.5877 123.665 30.8792C123.665 32.1283 126.183 36.2735 127.677 38.3688Z" fill="url(#paint3_linear_524_1240)" stroke="black" stroke-width="0.2"/>
<path d="M127.875 57.292C127.875 63.5335 119.012 70.4656 113.029 70.4656C107.046 70.4656 99.2539 64.5365 99.2539 58.2951C99.2539 52.0536 100.56 41.9785 106.543 41.9785C112.526 41.9785 127.875 51.0505 127.875 57.292Z" fill="white"/>
<path d="M99.2537 56.4897C99.2537 62.7312 108.116 69.6633 114.099 69.6633C120.082 69.6633 127.875 63.7343 127.875 57.4928C127.875 51.2513 126.569 41.1763 120.586 41.1763C114.603 41.1763 99.2537 50.2483 99.2537 56.4897Z" fill="white"/>
<path d="M101.862 45.1884C104.911 39.5178 106.208 33.2854 106.476 30.878C110.644 29.6521 119.516 27.9357 119.783 30.878C120.051 33.8203 123.528 41.6443 125.467 45.1884C116.328 47.5512 98.8124 50.8591 101.862 45.1884Z" fill="white"/>
<ellipse cx="92.6932" cy="50.2686" rx="3.07607" ry="9.56256" transform="rotate(42.0966 92.6932 50.2686)" fill="#191919"/>
<ellipse rx="3.07607" ry="9.56256" transform="matrix(0.742016 -0.670382 -0.670382 -0.742016 135.879 50.9077)" fill="#191919"/>
<path d="M110.455 25.3074C110.455 26.2445 110.125 27.0922 109.643 27.7044C109.16 28.3187 108.534 28.6847 107.947 28.6847C107.364 28.6847 106.823 28.3231 106.423 27.7115C106.024 27.1007 105.773 26.251 105.773 25.3074C105.773 24.3637 106.024 23.5141 106.423 22.9033C106.823 22.2916 107.364 21.9301 107.947 21.9301C108.534 21.9301 109.16 22.296 109.643 22.9104C110.125 23.5226 110.455 24.3703 110.455 25.3074Z" fill="white" stroke="black" stroke-width="0.2"/>
<path d="M109.319 26.1769C109.319 26.6939 109.143 27.1566 108.896 27.4825C108.639 27.821 108.36 27.9506 108.176 27.9506C108.013 27.9506 107.792 27.8445 107.586 27.5181C107.384 27.1981 107.243 26.7253 107.243 26.1769C107.243 25.6286 107.384 25.1557 107.586 24.8358C107.792 24.5093 108.013 24.4033 108.176 24.4033C108.36 24.4033 108.639 24.5328 108.896 24.8713C109.143 25.1973 109.319 25.66 109.319 26.1769Z" fill="black" stroke="black"/>
<path d="M119.349 25.3745C119.349 26.4002 118.904 27.4823 118.249 28.3086C117.592 29.1374 116.741 29.688 115.942 29.688C115.154 29.688 114.419 29.0512 113.873 28.1195C113.33 27.1934 112.996 26.007 112.996 24.9733C112.996 22.9137 114.551 21.3285 116.172 21.3285C116.974 21.3285 117.767 21.8154 118.364 22.5739C118.96 23.3311 119.349 24.3461 119.349 25.3745Z" fill="white" stroke="black" stroke-width="0.2"/>
<path d="M117.21 25.9093C117.21 26.4986 117.007 27.0274 116.72 27.4018C116.424 27.7882 116.091 27.9504 115.852 27.9504C115.635 27.9504 115.367 27.8112 115.129 27.4374C114.894 27.0693 114.733 26.5304 114.733 25.9093C114.733 25.2881 114.894 24.7492 115.129 24.3812C115.367 24.0073 115.635 23.8682 115.852 23.8682C116.091 23.8682 116.424 24.0303 116.72 24.4167C117.007 24.7911 117.21 25.3199 117.21 25.9093Z" fill="black" stroke="black"/>
<path d="M115.463 27.5108C112.253 25.05 109.133 26.9313 107.974 28.1795C107.416 28.3801 106.155 29.0622 105.566 30.1857C104.831 31.59 106.837 32.9274 107.305 33.2617C107.773 33.5961 107.639 33.9304 109.311 34.7998C109.471 35.6557 111.339 35.7805 112.253 35.736C112.588 35.8474 113.898 35.6423 116.466 33.9304C119.355 32.8605 119.943 31.2556 119.877 30.5869C120.211 30.0519 119.796 28.6877 115.463 27.5108Z" fill="url(#paint4_linear_524_1240)" stroke="#EE8A35" stroke-width="0.5"/>
<path d="M107.011 30.8568C108.237 32.3503 111.571 34.7889 115.102 32.5955C118.111 30.8568 117.844 30.7231 118.513 30.5894" stroke="#EE8A35" stroke-width="0.5"/>
<defs>
<linearGradient id="paint0_linear_524_1240" x1="113.172" y1="72.7798" x2="113.172" y2="82.6389" gradientUnits="userSpaceOnUse">
<stop stop-color="#FEA83C"/>
<stop offset="1" stop-color="#FFE60F"/>
</linearGradient>
<linearGradient id="paint1_linear_524_1240" x1="108.482" y1="13.8056" x2="113.504" y2="75.1541" gradientUnits="userSpaceOnUse">
<stop stop-color="#383838"/>
<stop offset="1"/>
</linearGradient>
<linearGradient id="paint2_linear_524_1240" x1="112.686" y1="26.3091" x2="112.686" y2="35.7609" gradientUnits="userSpaceOnUse">
<stop stop-color="#FCA643"/>
<stop offset="1" stop-color="#FFF607"/>
</linearGradient>
<linearGradient id="paint3_linear_524_1240" x1="108.482" y1="13.8056" x2="113.504" y2="75.1541" gradientUnits="userSpaceOnUse">
<stop stop-color="#383838"/>
<stop offset="1"/>
</linearGradient>
<linearGradient id="paint4_linear_524_1240" x1="112.686" y1="26.3091" x2="112.686" y2="35.7609" gradientUnits="userSpaceOnUse">
<stop stop-color="#FCA643"/>
<stop offset="1" stop-color="#FFF607"/>
</linearGradient>
</defs>
</svg>
