<svg width="157" height="80" viewBox="0 0 157 80" fill="none" xmlns="http://www.w3.org/2000/svg">
<path d="M24.5231 32.3851H18.009L31.0372 78.5869L50.4588 74.0029C94.6582 78.4422 118.817 71.4295 125.371 67.3682C126.738 62.9853 127.591 49.756 120.063 31.9026C112.536 14.0492 95.4543 4.9214 87.8546 2.5892C78.6464 0.699307 57.552 -1.05387 46.8399 7.05256C35.4523 11.5883 27.2172 25.8308 24.5231 32.3851Z" fill="#6588CB"/>
<path d="M1 70.7458L7.99662 72.4347C7.31304 63.4677 7.73123 45.5339 14.8726 45.5339C22.014 45.5339 22.6734 65.9608 22.1105 76.1742L31.0372 78.5869C31.8816 71.7914 32.3159 55.1844 27.2976 43.1212C22.2794 31.0581 15.5562 31.1787 12.8219 32.747C9.8463 34.275 3.67802 38.489 2.80947 43.1212C2.03743 43.0247 1.28147 61.4974 1 70.7458Z" fill="#6588CB"/>
<path d="M13.9627 45.4283C21.1522 44.8444 22.4161 61.4051 22.2109 69.88L8.05352 72.4347C8.54595 71.0966 4.97583 46.1582 13.9627 45.4283Z" fill="#6588CB"/>
<path d="M37.4307 33.1089L18.009 32.2645C20.7433 33.3502 25.3675 37.5723 27.7802 44.4482C30.1928 51.3242 32.726 70.0221 30.9166 78.4663L49.9763 74.2442C50.2176 65.8 49.6627 47.6088 46.9605 42.3975C44.2584 37.1862 39.1195 34.4358 37.4307 33.1089Z" fill="#6588CB"/>
<path d="M80.136 62.5793C75.9714 62.6679 72.0439 62.6378 68.4348 62.5259V47.0076C75.7836 46.9862 83.7008 46.8686 91.2341 46.597C98.0078 46.3529 104.471 45.9843 109.932 45.4494C115.236 44.9299 119.594 44.2534 122.372 43.3817L123.201 57.242C121.272 57.7109 119.34 58.1429 117.411 58.5403C114.91 59.0557 112.413 59.5129 109.932 59.917C106.926 60.4065 103.944 60.8181 101.005 61.1608C97.9916 61.5122 95.0232 61.7911 92.1216 62.0074C87.969 62.3169 83.9529 62.498 80.136 62.5793Z" fill="#6588CB"/>
<path d="M49.9819 74.3224L30.8016 78.5445C33.0936 72.6335 30.8016 52.1262 27.062 42.8376C24.0703 35.4067 19.3818 32.6643 17.4115 32.222L37.3157 33.1871C39.9695 34.3934 44.9022 38.0441 47.2074 42.8376C49.3656 46.3677 50.5851 64.8729 49.9819 74.3224Z" fill="#6588CB"/>
<path d="M31.0372 78.5869L50.4588 74.0029C94.6582 78.4422 118.817 71.4295 125.371 67.3682C126.738 62.9853 127.591 49.756 120.063 31.9026C112.536 14.0492 95.4543 4.9214 87.8546 2.5892C78.6464 0.699307 57.552 -1.05387 46.8399 7.05256C35.4523 11.5883 27.2172 25.8308 24.5231 32.3851H18.009L31.0372 78.5869ZM31.0372 78.5869C31.8816 71.7914 32.3159 55.1844 27.2976 43.1212C22.2794 31.0581 15.5562 31.1787 12.8219 32.747C9.8463 34.275 3.67802 38.489 2.80947 43.1212C2.03743 43.0247 1.28147 61.4974 1 70.7458L7.99662 72.4347C7.31304 63.4677 7.73123 45.5339 14.8726 45.5339C22.014 45.5339 22.6734 65.9608 22.1105 76.1742L31.0372 78.5869ZM54.8016 3.19242C59.8388 2.58781 75.5546 1.81877 88.1237 3.26983M38.3957 12.8429C50.9888 11.2306 83.6401 8.8528 105.708 12.7223M30.6753 21.2871C43.7481 20.1182 78.6489 18.4817 113.67 21.2871M24.0406 32.3851C48.9308 31.7418 103.078 30.7204 120.063 32.2645M49.8557 60.9748C51.6242 61.246 54.5431 61.6116 57.0955 61.8473M57.0955 61.8473V74.8475M57.0955 61.8473C60.3398 62.1469 64.1644 62.3936 68.4348 62.5259M68.4348 62.5259C72.0439 62.6378 75.9714 62.6679 80.136 62.5793M68.4348 62.5259V47.0076M80.136 62.5793V75.6919M80.136 62.5793C83.9529 62.498 87.969 62.3169 92.1216 62.0074M101.005 61.1608V74.4856M101.005 61.1608C103.944 60.8181 106.926 60.4065 109.932 59.917M101.005 61.1608C97.9916 61.5122 95.0232 61.7911 92.1216 62.0074M117.411 58.5403V71.1079M117.411 58.5403C114.91 59.0557 112.413 59.5129 109.932 59.917M117.411 58.5403C119.34 58.1429 121.272 57.7109 123.201 57.242M122.372 43.3817C122.667 43.2893 123.786 42.977 124.044 42.8802M122.372 43.3817L123.201 57.242M122.372 43.3817C119.594 44.2534 115.236 44.9299 109.932 45.4494M123.201 57.242C123.885 57.0757 125.412 56.6871 126.095 56.5115M109.932 45.4494V59.917M109.932 45.4494C104.471 45.9843 98.0078 46.3529 91.2341 46.597M91.2341 46.597L92.1216 62.0074M91.2341 46.597C83.7008 46.8686 75.7836 46.9862 68.4348 47.0076M68.4348 47.0076C64.7992 47.0182 61.3026 47.0053 58.0605 46.9757M48.4081 46.7404C51.1017 46.7991 54.6855 46.945 58.0605 46.9757M58.0605 46.9757C57.2885 44.4807 58.5009 35.453 59.1443 31.5408M79.171 31.5173L80.8579 46.861M98.1101 31.5173L101.245 46.1372M113.066 31.7821L117.773 44.3043M113.068 21.3843L117.892 32.0233M101.488 20.5399L106.554 31.5173M87.0101 19.8396L89.5453 31.5173M69.5205 19.7189V31.5173M52.6302 19.9602L50.0969 31.7821M38.7576 20.684L34.5355 32.0233M51.4258 11.4925L46.1161 20.3221M39.9639 12.6017L31.8816 21.1665M63.3664 10.7922L61.0763 19.6955M76.8771 10.551L78.8072 19.7189M89.9053 10.9129L93.888 20.178M101.727 12.1192L107.156 20.9252M87.8564 3.16897L95.9369 11.3954M78.8072 2.58929L83.3912 10.6716M71.2074 2.46866L70.4836 10.6716M62.4032 2.80708L56.7336 11.01M55.7666 3.19245L45.8749 11.9985M21.8616 76.043L30.8016 78.5445M30.8016 78.5445L49.9819 74.3224C50.5851 64.8729 49.3656 46.3677 47.2074 42.8376C44.9022 38.0441 39.9695 34.3934 37.3157 33.1871L17.4115 32.222M30.8016 78.5445C33.0936 72.6335 30.8016 52.1262 27.062 42.8376C24.0703 35.4067 19.3818 32.6643 17.4115 32.222M17.4115 32.222C10.4149 31.257 3.76695 39.7329 2.81509 42.8376C1.71622 44.6788 0.925202 61.8973 1.00562 70.7034L8.12287 72.5129L22.1029 69.7701M8.00226 72.3922C7.35889 63.6665 7.54386 46.0945 13.4307 45.612C20.7892 45.0088 22.8399 56.8307 21.8748 76.1317M1.24688 63.345L7.8816 64.7925L21.9898 62.6633M22.1029 68.3226L31.7666 69.8591L50.2176 66.4029M21.741 58.9134L30.6809 60.6911L49.8481 57.8277M20.1728 51.3136L27.062 44.1646L46.8399 42.156M16.2052 45.9741L18.7328 32.7467M9.68545 34.5562L11.8568 46.2574M3.17136 42.0353L9.57044 50.0755M1.24688 55.3833L7.8816 56.7103L21.0304 54.5389M50.097 74.0029C69.1567 76.0134 110.654 77.6243 125.612 67.0087C129.11 45.1744 118.616 16.7055 92.6798 4.03917C67.685 -2.61968 51.4641 3.27517 46.478 7.05495C42.0147 9.10569 31.3026 17.0191 24.1612 32.2669M22.2109 69.88C22.4161 61.4051 21.1522 44.8444 13.9627 45.4283C4.97583 46.1582 8.54595 71.0966 8.05352 72.4347L22.2109 69.88ZM18.009 32.2645L37.4307 33.1089C39.1195 34.4358 44.2584 37.1862 46.9605 42.3975C49.6627 47.6088 50.2176 65.8 49.9763 74.2442L30.9166 78.4663C32.726 70.0221 30.1928 51.3242 27.7802 44.4482C25.3675 37.5723 20.7433 33.3502 18.009 32.2645Z" stroke="#6588CB"/>
<path d="M72.88 28.685C74.41 28.685 75.685 28.92 76.705 29.39C77.725 29.85 78.49 30.465 79 31.235C79.52 31.995 79.78 32.82 79.78 33.71C79.78 34.68 79.59 35.475 79.21 36.095C78.84 36.705 78.38 37.22 77.83 37.64C77.28 38.05 76.725 38.435 76.165 38.795C75.615 39.155 75.15 39.56 74.77 40.01C74.4 40.46 74.215 41.035 74.215 41.735V42.35H69.88V41.585C69.88 40.555 70.045 39.715 70.375 39.065C70.715 38.405 71.13 37.865 71.62 37.445C72.12 37.025 72.615 36.66 73.105 36.35C73.595 36.03 74.005 35.705 74.335 35.375C74.675 35.035 74.845 34.615 74.845 34.115C74.845 33.565 74.62 33.145 74.17 32.855C73.72 32.565 73.145 32.42 72.445 32.42C71.765 32.42 71.1 32.57 70.45 32.87C69.81 33.17 69.22 33.63 68.68 34.25L65.68 31.91C66.54 30.9 67.56 30.11 68.74 29.54C69.93 28.97 71.31 28.685 72.88 28.685ZM72.1 45.08C72.85 45.08 73.49 45.35 74.02 45.89C74.55 46.42 74.815 47.055 74.815 47.795C74.815 48.535 74.55 49.175 74.02 49.715C73.49 50.245 72.85 50.51 72.1 50.51C71.34 50.51 70.7 50.245 70.18 49.715C69.66 49.175 69.4 48.535 69.4 47.795C69.4 47.055 69.66 46.42 70.18 45.89C70.7 45.35 71.34 45.08 72.1 45.08Z" fill="white"/>
<path d="M104.233 71.5801C104.233 71.5801 107.203 69.361 111.657 68.7798H137.984C142.44 69.3639 146.11 71.6458 146.11 71.6458C146.11 71.6458 147.001 74.1414 146.11 75.8406C145.219 77.5397 129.031 79.8761 127.595 77.8583C126.16 75.8406 126.704 70.0528 126.704 70.0528L123.634 69.995C123.634 69.995 124.178 75.7541 122.743 77.7619C121.307 79.7696 105.124 77.4449 104.233 75.7541C103.342 74.0634 104.233 71.5801 104.233 71.5801Z" fill="url(#paint0_linear_525_1278)"/>
<path d="M104.431 72.0028C104.431 72.0028 106.559 74.486 115.319 73.6935M146.003 72.0028C146.003 72.0028 144.568 74.2747 134.076 73.9048M111.657 68.7798C107.203 69.361 104.233 71.5801 104.233 71.5801C104.233 71.5801 103.342 74.0634 104.233 75.7541C105.124 77.4449 121.307 79.7696 122.743 77.7619C124.178 75.7541 123.634 69.995 123.634 69.995L126.704 70.0528C126.704 70.0528 126.16 75.8406 127.595 77.8583C129.031 79.8761 145.219 77.5397 146.11 75.8406C147.001 74.1414 146.11 71.6458 146.11 71.6458C146.11 71.6458 142.44 69.3639 137.984 68.7798H111.657Z" stroke="#EE8A35" stroke-width="0.5"/>
<path d="M139.677 34.3688C146.565 41.524 148.103 49.281 146.565 54.4969C146.565 66.8466 135.29 73.4883 124.43 70.2785C110.521 74.3577 104.101 63.3908 103.901 53.7614C103.7 44.1319 114.166 32.2736 114.868 29.5541C115.402 27.4811 115.559 21.5518 115.336 18.6541C115.091 15.0207 116.914 7.80757 126.169 8.02156C136.467 7.286 135.665 25.5877 135.665 26.8792C135.665 28.1283 138.183 32.2735 139.677 34.3688Z" fill="url(#paint1_linear_525_1278)" stroke="black"/>
<path d="M139.875 53.292C139.875 59.5335 131.012 66.4656 125.029 66.4656C119.046 66.4656 111.254 60.5365 111.254 54.2951C111.254 48.0536 112.56 37.9785 118.543 37.9785C124.526 37.9785 139.875 47.0505 139.875 53.292Z" fill="white"/>
<path d="M111.254 52.4897C111.254 58.7312 120.116 65.6633 126.099 65.6633C132.082 65.6633 139.875 59.7343 139.875 53.4928C139.875 47.2513 138.569 37.1763 132.586 37.1763C126.603 37.1763 111.254 46.2483 111.254 52.4897Z" fill="white"/>
<path d="M113.862 41.1884C116.911 35.5178 118.208 29.2854 118.476 26.878C122.644 25.6521 131.516 23.9357 131.783 26.878C132.051 29.8203 135.528 37.6443 137.467 41.1884C128.328 43.5512 110.812 46.8591 113.862 41.1884Z" fill="white"/>
<ellipse cx="104.693" cy="46.2686" rx="3.07607" ry="9.56256" transform="rotate(42.0966 104.693 46.2686)" fill="#191919"/>
<path d="M122.055 21.3074C122.055 22.1519 121.757 22.9131 121.329 23.457C120.892 24.0118 120.371 24.2847 119.947 24.2847C119.543 24.2847 119.112 24.0338 118.758 23.4926C118.407 22.9558 118.173 22.1846 118.173 21.3074C118.173 20.4302 118.407 19.659 118.758 19.1222C119.112 18.5809 119.543 18.3301 119.947 18.3301C120.371 18.3301 120.892 18.6029 121.329 19.1577C121.757 19.7017 122.055 20.4628 122.055 21.3074Z" fill="white" stroke="black"/>
<path d="M121.319 22.1769C121.319 22.6939 121.143 23.1566 120.896 23.4825C120.639 23.821 120.36 23.9506 120.176 23.9506C120.013 23.9506 119.792 23.8445 119.586 23.5181C119.384 23.1981 119.243 22.7253 119.243 22.1769C119.243 21.6286 119.384 21.1557 119.586 20.8358C119.792 20.5093 120.013 20.4033 120.176 20.4033C120.36 20.4033 120.639 20.5328 120.896 20.8713C121.143 21.1973 121.319 21.66 121.319 22.1769Z" fill="black" stroke="black"/>
<path d="M130.949 21.3745C130.949 22.2928 130.546 23.2897 129.936 24.0601C129.315 24.8435 128.567 25.288 127.942 25.288C127.374 25.288 126.743 24.8137 126.218 23.9173C125.709 23.0487 125.396 21.9316 125.396 20.9733C125.396 19.0957 126.809 17.7285 128.172 17.7285C128.811 17.7285 129.5 18.1221 130.05 18.8213C130.594 19.5134 130.949 20.4426 130.949 21.3745Z" fill="white" stroke="black"/>
<path d="M129.21 21.9093C129.21 22.4986 129.007 23.0274 128.72 23.4018C128.424 23.7882 128.091 23.9504 127.852 23.9504C127.635 23.9504 127.367 23.8112 127.129 23.4374C126.894 23.0693 126.733 22.5304 126.733 21.9093C126.733 21.2881 126.894 20.7492 127.129 20.3812C127.367 20.0073 127.635 19.8682 127.852 19.8682C128.091 19.8682 128.424 20.0303 128.72 20.4167C129.007 20.7911 129.21 21.3199 129.21 21.9093Z" fill="black" stroke="black"/>
<path d="M127.463 23.5108C124.253 21.05 121.133 22.9313 119.974 24.1795C119.416 24.3801 118.155 25.0622 117.566 26.1857C116.831 27.59 118.837 28.9274 119.305 29.2617C119.773 29.5961 119.639 29.9304 121.311 30.7998C121.471 31.6557 123.339 31.7805 124.253 31.736C124.588 31.8474 125.898 31.6423 128.466 29.9304C131.355 28.8605 131.943 27.2556 131.877 26.5869C132.211 26.0519 131.796 24.6877 127.463 23.5108Z" fill="url(#paint2_linear_525_1278)" stroke="#EE8A35" stroke-width="3"/>
<path d="M119.011 26.8568C120.237 28.3503 123.571 30.7889 127.102 28.5955C130.111 26.8568 129.844 26.7231 130.513 26.5894" stroke="#EE8A35" stroke-width="3"/>
<path d="M139.677 34.3688C146.565 41.524 148.103 49.281 146.565 54.4969C146.565 66.8466 135.29 73.4883 124.43 70.2785C110.521 74.3577 104.101 63.3908 103.901 53.7614C103.7 44.1319 114.166 32.2736 114.868 29.5541C115.402 27.4811 115.559 21.5518 115.336 18.6541C115.091 15.0207 116.914 7.80757 126.169 8.02156C136.467 7.286 135.665 25.5877 135.665 26.8792C135.665 28.1283 138.183 32.2735 139.677 34.3688Z" fill="url(#paint3_linear_525_1278)" stroke="black" stroke-width="0.2"/>
<path d="M139.875 53.292C139.875 59.5335 131.012 66.4656 125.029 66.4656C119.046 66.4656 111.254 60.5365 111.254 54.2951C111.254 48.0536 112.56 37.9785 118.543 37.9785C124.526 37.9785 139.875 47.0505 139.875 53.292Z" fill="white"/>
<path d="M111.254 52.4897C111.254 58.7312 120.116 65.6633 126.099 65.6633C132.082 65.6633 139.875 59.7343 139.875 53.4928C139.875 47.2513 138.569 37.1763 132.586 37.1763C126.603 37.1763 111.254 46.2483 111.254 52.4897Z" fill="white"/>
<path d="M113.862 41.1884C116.911 35.5178 118.208 29.2854 118.476 26.878C122.644 25.6521 131.516 23.9357 131.783 26.878C132.051 29.8203 135.528 37.6443 137.467 41.1884C128.328 43.5512 110.812 46.8591 113.862 41.1884Z" fill="white"/>
<ellipse cx="104.693" cy="46.2686" rx="3.07607" ry="9.56256" transform="rotate(42.0966 104.693 46.2686)" fill="#191919"/>
<ellipse rx="3.07607" ry="9.56256" transform="matrix(0.742016 -0.670382 -0.670382 -0.742016 147.879 46.9077)" fill="#191919"/>
<path d="M122.455 21.3074C122.455 22.2445 122.125 23.0922 121.643 23.7044C121.16 24.3187 120.534 24.6847 119.947 24.6847C119.364 24.6847 118.823 24.3231 118.423 23.7115C118.024 23.1007 117.773 22.251 117.773 21.3074C117.773 20.3637 118.024 19.5141 118.423 18.9033C118.823 18.2916 119.364 17.9301 119.947 17.9301C120.534 17.9301 121.16 18.296 121.643 18.9104C122.125 19.5226 122.455 20.3703 122.455 21.3074Z" fill="white" stroke="black" stroke-width="0.2"/>
<path d="M121.319 22.1769C121.319 22.6939 121.143 23.1566 120.896 23.4825C120.639 23.821 120.36 23.9506 120.176 23.9506C120.013 23.9506 119.792 23.8445 119.586 23.5181C119.384 23.1981 119.243 22.7253 119.243 22.1769C119.243 21.6286 119.384 21.1557 119.586 20.8358C119.792 20.5093 120.013 20.4033 120.176 20.4033C120.36 20.4033 120.639 20.5328 120.896 20.8713C121.143 21.1973 121.319 21.66 121.319 22.1769Z" fill="black" stroke="black"/>
<path d="M131.349 21.3745C131.349 22.4002 130.904 23.4823 130.249 24.3086C129.592 25.1374 128.741 25.688 127.942 25.688C127.154 25.688 126.419 25.0512 125.873 24.1195C125.33 23.1934 124.996 22.007 124.996 20.9733C124.996 18.9137 126.551 17.3285 128.172 17.3285C128.974 17.3285 129.767 17.8154 130.364 18.5739C130.96 19.3311 131.349 20.3461 131.349 21.3745Z" fill="white" stroke="black" stroke-width="0.2"/>
<path d="M129.21 21.9093C129.21 22.4986 129.007 23.0274 128.72 23.4018C128.424 23.7882 128.091 23.9504 127.852 23.9504C127.635 23.9504 127.367 23.8112 127.129 23.4374C126.894 23.0693 126.733 22.5304 126.733 21.9093C126.733 21.2881 126.894 20.7492 127.129 20.3812C127.367 20.0073 127.635 19.8682 127.852 19.8682C128.091 19.8682 128.424 20.0303 128.72 20.4167C129.007 20.7911 129.21 21.3199 129.21 21.9093Z" fill="black" stroke="black"/>
<path d="M127.463 23.5108C124.253 21.05 121.133 22.9313 119.974 24.1795C119.416 24.3801 118.155 25.0622 117.566 26.1857C116.831 27.59 118.837 28.9274 119.305 29.2617C119.773 29.5961 119.639 29.9304 121.311 30.7998C121.471 31.6557 123.339 31.7805 124.253 31.736C124.588 31.8474 125.898 31.6423 128.466 29.9304C131.355 28.8605 131.943 27.2556 131.877 26.5869C132.211 26.0519 131.796 24.6877 127.463 23.5108Z" fill="url(#paint4_linear_525_1278)" stroke="#EE8A35" stroke-width="0.5"/>
<path d="M119.011 26.8568C120.237 28.3503 123.571 30.7889 127.102 28.5955C130.111 26.8568 129.844 26.7231 130.513 26.5894" stroke="#EE8A35" stroke-width="0.5"/>
<defs>
<linearGradient id="paint0_linear_525_1278" x1="125.172" y1="68.7798" x2="125.172" y2="78.6389" gradientUnits="userSpaceOnUse">
<stop stop-color="#FEA83C"/>
<stop offset="1" stop-color="#FFE60F"/>
</linearGradient>
<linearGradient id="paint1_linear_525_1278" x1="120.482" y1="9.8056" x2="125.504" y2="71.1541" gradientUnits="userSpaceOnUse">
<stop stop-color="#383838"/>
<stop offset="1"/>
</linearGradient>
<linearGradient id="paint2_linear_525_1278" x1="124.686" y1="22.3091" x2="124.686" y2="31.7609" gradientUnits="userSpaceOnUse">
<stop stop-color="#FCA643"/>
<stop offset="1" stop-color="#FFF607"/>
</linearGradient>
<linearGradient id="paint3_linear_525_1278" x1="120.482" y1="9.8056" x2="125.504" y2="71.1541" gradientUnits="userSpaceOnUse">
<stop stop-color="#383838"/>
<stop offset="1"/>
</linearGradient>
<linearGradient id="paint4_linear_525_1278" x1="124.686" y1="22.3091" x2="124.686" y2="31.7609" gradientUnits="userSpaceOnUse">
<stop stop-color="#FCA643"/>
<stop offset="1" stop-color="#FFF607"/>
</linearGradient>
</defs>
</svg>
