<svg width="175" height="202" viewBox="0 0 175 202" fill="none" xmlns="http://www.w3.org/2000/svg">
<path d="M149.249 78.5508C169.506 99.5943 174.029 122.408 169.506 137.748C169.506 174.068 136.347 193.602 104.408 184.162C63.501 196.159 44.621 163.905 44.031 135.585C43.441 107.264 74.221 72.3889 76.2846 64.3907C77.8576 58.294 78.3169 40.856 77.6613 32.3337C76.9402 21.6481 82.3027 0.434066 109.522 1.06341C139.809 -1.0999 137.449 52.7256 137.449 56.5239C137.449 60.1975 144.856 72.3885 149.249 78.5508Z" fill="url(#paint0_linear_163_825)" stroke="black"/>
<path d="M149.83 134.202C149.83 152.558 123.766 172.946 106.17 172.946C88.5738 172.946 65.6561 155.508 65.6561 137.152C65.6561 118.796 69.497 89.165 87.0929 89.165C104.689 89.165 149.83 115.846 149.83 134.202Z" fill="white"/>
<path d="M65.6559 131.843C65.6559 150.199 91.7204 170.586 109.316 170.586C126.912 170.586 149.83 153.149 149.83 134.793C149.83 116.436 145.989 86.8057 128.393 86.8057C110.797 86.8057 65.6559 113.486 65.6559 131.843Z" fill="white"/>
<path d="M73.3261 98.6053C82.2941 81.9278 86.1095 63.5983 86.8962 56.5182C99.1552 52.9127 125.246 47.8648 126.033 56.5182C126.82 65.1716 137.047 88.1819 142.75 98.6053C115.872 105.554 64.358 115.283 73.3261 98.6053Z" fill="white"/>
<path d="M79.6196 198.365C63.5714 191.442 50.0993 190.044 44.7237 189.912C37.4863 189.912 37.2503 181.783 38.0369 177.719C39.4136 175.293 41.577 168.948 39.217 162.969C36.857 156.99 43.2159 153.004 46.6904 151.759C51.8893 150.581 55.036 146.647 58.3794 142.124C66.4428 132.094 75.994 146.252 80.9107 154.709C85.8274 163.166 93.9764 174.462 97.7131 179.288C100.955 183.475 99.6798 207.018 79.6196 198.365Z" fill="url(#paint1_linear_163_825)" stroke="#EE8A35" stroke-width="2"/>
<path d="M98.3929 40.1369C98.3929 42.8453 97.4386 45.2938 96.0498 47.0592C94.6525 48.8354 92.8657 49.8637 91.2229 49.8637C89.6001 49.8637 88.0656 48.8574 86.9131 47.0947C85.7635 45.3365 85.0361 42.8779 85.0361 40.1369C85.0361 37.3959 85.7635 34.9374 86.9131 33.1791C88.0656 31.4165 89.6001 30.4102 91.2229 30.4102C92.8657 30.4102 94.6525 31.4385 96.0498 33.2147C97.4386 34.98 98.3929 37.4286 98.3929 40.1369Z" fill="white" stroke="black"/>
<path d="M96.2298 42.6936C96.2298 44.4291 95.6401 45.9951 94.7874 47.1197C93.9253 48.2568 92.8485 48.8803 91.8966 48.8803C90.9657 48.8803 90.0491 48.2803 89.3402 47.1552C88.6353 46.0367 88.183 44.4606 88.183 42.6936C88.183 40.9266 88.6353 39.3504 89.3402 38.2319C90.0491 37.1068 90.9657 36.5068 91.8966 36.5068C92.8485 36.5068 93.9253 37.1303 94.7874 38.2674C95.6401 39.392 96.2298 40.958 96.2298 42.6936Z" fill="black" stroke="black"/>
<path d="M124.55 40.3341C124.55 43.2953 123.264 46.434 121.36 48.8352C119.447 51.2496 116.997 52.8142 114.736 52.8142C112.533 52.8142 110.423 51.025 108.829 48.3031C107.25 45.6088 106.276 42.1554 106.276 39.1541C106.276 33.1904 110.778 28.6406 115.413 28.6406C117.688 28.6406 119.966 30.0246 121.698 32.2248C123.423 34.4181 124.55 37.3592 124.55 40.3341Z" fill="white" stroke="black"/>
<path d="M119.436 41.907C119.436 43.8584 118.766 45.6202 117.794 46.8872C116.814 48.1662 115.579 48.8804 114.473 48.8804C113.387 48.8804 112.334 48.1892 111.526 46.9228C110.723 45.6622 110.21 43.8902 110.21 41.907C110.21 39.9238 110.723 38.1518 111.526 36.8912C112.334 35.6248 113.387 34.9336 114.473 34.9336C115.579 34.9336 116.814 35.6478 117.794 36.9268C118.766 38.1938 119.436 39.9556 119.436 41.907Z" fill="black" stroke="black"/>
<path d="M113.328 46.6212C103.888 39.3838 94.7104 44.9168 91.3014 48.5879C89.6625 49.1779 85.9521 51.1839 84.2214 54.488C82.058 58.618 87.9581 62.5514 89.3348 63.5347C90.7114 64.5181 90.3181 65.5014 95.2348 68.0581C95.7068 70.5755 101.2 70.9426 103.888 70.8115C104.872 71.1392 108.726 70.5361 116.278 65.5014C124.774 62.3547 126.505 57.6347 126.308 55.668C127.292 54.0946 126.072 50.0826 113.328 46.6212Z" fill="url(#paint2_linear_163_825)" stroke="#EE8A35" stroke-width="2"/>
<path d="M88.4697 56.4605C92.0753 60.8528 101.883 68.0246 112.267 61.5739C121.117 56.4605 120.33 56.0672 122.297 55.6738" stroke="#EE8A35" stroke-width="2"/>
<path d="M131.526 198.365C147.574 191.442 161.046 190.044 166.422 189.912C173.659 189.912 173.895 181.783 173.108 177.719C171.732 175.293 169.568 168.948 171.928 162.969C174.288 156.99 167.929 153.004 164.455 151.759C159.256 150.581 156.109 146.647 152.766 142.124C144.703 132.094 135.151 146.252 130.235 154.709C125.318 163.166 117.169 174.462 113.432 179.288C110.19 183.475 111.466 207.018 131.526 198.365Z" fill="url(#paint3_linear_163_825)" stroke="#EE8A35" stroke-width="2"/>
<path d="M164.684 141.225C164.684 142.387 164.174 143.663 163.265 144.949C162.36 146.229 161.086 147.481 159.626 148.583C156.689 150.798 153.106 152.328 150.434 152.328C147.796 152.328 145.723 151.027 144.294 149.079C142.857 147.122 142.084 144.524 142.084 142.012C142.084 141.582 142.08 141.16 142.077 140.745C142.07 139.883 142.063 139.054 142.088 138.261C142.126 137.09 142.234 136.052 142.5 135.189C142.764 134.333 143.175 133.674 143.807 133.222C144.441 132.768 145.354 132.481 146.697 132.481C149.438 132.481 153.993 133.468 157.863 135.108C159.796 135.927 161.526 136.896 162.764 137.96C164.011 139.033 164.684 140.136 164.684 141.225Z" fill="black" stroke="black"/>
<path d="M56.6567 51.7597C56.6567 27.6256 41.8575 2.9668 28.6439 2.9668C15.4303 2.9668 0.631104 28.4125 0.631104 51.7597C0.631104 75.1068 15.6946 81.4026 28.6439 81.4026C41.5932 81.4026 56.6567 75.8938 56.6567 51.7597Z" fill="url(#paint4_linear_163_825)"/>
<path d="M44.436 36.3974C44.4572 35.5319 44.4733 34.6569 44.4853 33.7801C44.3162 34.2994 44.2385 35.1972 44.436 36.3974Z" fill="url(#paint5_linear_163_825)"/>
<path d="M10.5296 81.1037C11.2329 77.8811 25.1554 78.4291 31.6025 79.7718L43.9106 81.1037C46.9876 81.1037 54.4604 89.7081 57.977 91.8565C61.4936 94.0049 73.3621 95.8849 67.6742 103.93V111.987C56.2453 113.479 47.8054 104.57 42.9473 99.913C36.8774 94.0944 29.7868 87.3698 29.7868 87.8174C29.7868 88.265 9.65047 85.132 10.5296 81.1037Z" fill="#191919"/>
<defs>
<linearGradient id="paint0_linear_163_825" x1="107.566" y1="1" x2="107.566" y2="186.737" gradientUnits="userSpaceOnUse">
<stop stop-color="#383838"/>
<stop offset="1"/>
</linearGradient>
<linearGradient id="paint1_linear_163_825" x1="68.4023" y1="138.668" x2="68.4023" y2="200.26" gradientUnits="userSpaceOnUse">
<stop stop-color="#FDA041"/>
<stop offset="1" stop-color="#FFE60F"/>
</linearGradient>
<linearGradient id="paint2_linear_163_825" x1="105.161" y1="43.0869" x2="105.161" y2="70.8848" gradientUnits="userSpaceOnUse">
<stop stop-color="#FCA643"/>
<stop offset="1" stop-color="#FFF607"/>
</linearGradient>
<linearGradient id="paint3_linear_163_825" x1="142.743" y1="138.668" x2="142.743" y2="200.26" gradientUnits="userSpaceOnUse">
<stop stop-color="#FDA041"/>
<stop offset="1" stop-color="#FFE60F"/>
</linearGradient>
<linearGradient id="paint4_linear_163_825" x1="0.631103" y1="2.60367" x2="56.5191" y2="81.1374" gradientUnits="userSpaceOnUse">
<stop offset="0.135417" stop-color="#EAEBB9"/>
<stop offset="0.46875" stop-color="#F876DE"/>
<stop offset="0.817708" stop-color="#9A4D7F"/>
</linearGradient>
<linearGradient id="paint5_linear_163_825" x1="7.63428" y1="17.9836" x2="23.9529" y2="62.895" gradientUnits="userSpaceOnUse">
<stop offset="0.135417" stop-color="#EAEBB9"/>
<stop offset="0.46875" stop-color="#F876DE"/>
<stop offset="0.817708" stop-color="#9A4D7F"/>
</linearGradient>
</defs>
</svg>
