<svg width="174" height="198" viewBox="0 0 174 198" fill="none" xmlns="http://www.w3.org/2000/svg">
<path d="M28.0289 177.147C28.0289 177.147 36.3264 170.871 48.7725 169.228H122.339C134.789 170.879 145.045 177.333 145.045 177.333C145.045 177.333 147.535 184.392 145.045 189.197C142.555 194.003 97.321 200.611 93.3094 194.904C89.2979 189.197 90.8195 172.828 90.8195 172.828L82.2389 172.664C82.2389 172.664 83.7601 188.953 79.7497 194.631C75.7393 200.31 30.5182 193.735 28.0289 188.953C25.5397 184.171 28.0289 177.147 28.0289 177.147Z" fill="url(#paint0_linear_205_1190)"/>
<path d="M28.5821 178.343C28.5821 178.343 34.5286 185.366 59.0061 183.125M144.746 178.343C144.746 178.343 140.736 184.769 111.418 183.722M48.7725 169.228C36.3264 170.871 28.0289 177.147 28.0289 177.147C28.0289 177.147 25.5397 184.171 28.0289 188.953C30.5182 193.735 75.7393 200.31 79.7497 194.631C83.7601 188.953 82.2389 172.664 82.2389 172.664L90.8195 172.828C90.8195 172.828 89.2979 189.197 93.3094 194.904C97.321 200.611 142.555 194.003 145.045 189.197C147.535 184.392 145.045 177.333 145.045 177.333C145.045 177.333 134.789 170.879 122.339 169.228H48.7725Z" stroke="#EE8A35"/>
<path d="M126.941 73.4466C146.125 93.3765 150.409 114.983 146.125 129.511C146.125 163.909 114.722 182.409 84.473 173.468C45.7308 184.83 27.8499 154.284 27.2911 127.462C26.7324 100.641 55.8835 67.6108 57.8378 60.0359C59.3276 54.2619 59.7626 37.7468 59.1417 29.6755C58.4588 19.5553 63.5375 -0.535983 89.3159 0.0600497C118 -1.98876 115.765 48.9882 115.765 52.5855C115.765 56.0646 122.781 67.6105 126.941 73.4466Z" fill="url(#paint1_linear_205_1190)"/>
<path d="M127.491 126.154C127.491 143.538 102.806 162.847 86.1415 162.847C69.4768 162.847 47.7719 146.332 47.7719 128.948C47.7719 111.563 51.4096 83.5 68.0743 83.5C84.739 83.5 127.491 108.769 127.491 126.154Z" fill="white"/>
<path d="M47.7719 123.918C47.7719 141.303 72.457 160.612 89.1217 160.612C105.786 160.612 127.491 144.097 127.491 126.712C127.491 109.327 123.854 81.2646 107.189 81.2646C90.5242 81.2646 47.7719 106.533 47.7719 123.918Z" fill="white"/>
<path d="M55.0361 92.4405C63.5296 76.6457 67.143 59.2862 67.8881 52.5808C79.4983 49.166 104.209 44.3853 104.954 52.5808C105.699 60.7762 115.384 82.5687 120.786 92.4405C95.3304 99.0217 46.5426 108.235 55.0361 92.4405Z" fill="white"/>
<path d="M24.1971 117.587C14.9311 106.162 6.61919 82.3837 10.2944 79.4031C13.9696 76.4224 24.4605 83.2679 33.7265 94.693C42.9925 106.118 47.5248 117.796 43.8496 120.777C40.1744 123.758 33.4631 129.012 24.1971 117.587Z" fill="#191919"/>
<ellipse rx="8.56798" ry="26.6352" transform="matrix(0.742016 -0.670382 -0.670382 -0.742016 149.787 108.372)" fill="#191919"/>
<path d="M78.7496 37.0664C78.7496 39.6253 77.8479 41.9385 76.5361 43.606C75.2159 45.2842 73.5306 46.2519 71.9854 46.2519C70.4604 46.2519 69.0144 45.3062 67.9259 43.6415C66.8404 41.9812 66.1526 39.658 66.1526 37.0664C66.1526 34.4748 66.8404 32.1516 67.9259 30.4913C69.0144 28.8266 70.4604 27.8809 71.9854 27.8809C73.5306 27.8809 75.2159 28.8486 76.5361 30.5268C77.8479 32.1943 78.7496 34.5075 78.7496 37.0664Z" fill="white" stroke="black"/>
<path d="M74.068 37.3329C74.068 38.9707 73.5114 40.4482 72.7073 41.5088C71.8938 42.5819 70.8809 43.1657 69.9906 43.1657C69.1212 43.1657 68.2604 42.6053 67.5918 41.5443C66.9273 40.4898 66.5 39.0021 66.5 37.3329C66.5 35.6636 66.9273 34.1759 67.5918 33.1214C68.2604 32.0604 69.1212 31.5 69.9906 31.5C70.8809 31.5 71.8938 32.0839 72.7073 33.1569C73.5114 34.2175 74.068 35.695 74.068 37.3329Z" fill="black" stroke="black"/>
<path d="M103.522 37.2522C103.522 40.0497 102.307 43.0166 100.508 45.2871C98.6977 47.5706 96.3846 49.0454 94.255 49.0454C92.1825 49.0454 90.1913 47.3617 88.6827 44.7861C87.1902 42.2383 86.269 38.9722 86.269 36.1347C86.269 30.4986 90.5228 26.2041 94.8957 26.2041C97.0395 26.2041 99.1905 27.5086 100.827 29.5885C102.458 31.6614 103.522 34.4412 103.522 37.2522Z" fill="white" stroke="black"/>
<path d="M95.1855 37.0779C95.1855 38.92 94.5525 40.583 93.6358 41.7785C92.71 42.9858 91.5476 43.6558 90.5111 43.6558C89.4952 43.6558 88.5045 43.0089 87.7429 41.814C86.9851 40.625 86.5 38.9518 86.5 37.0779C86.5 35.2039 86.9851 33.5308 87.7429 32.3418C88.5045 31.1469 89.4952 30.5 90.5111 30.5C91.5476 30.5 92.71 31.1699 93.6358 32.3773C94.5525 33.5728 95.1855 35.2357 95.1855 37.0779Z" fill="black" stroke="black"/>
<path d="M92.9208 43.2067C83.9803 36.3523 75.2882 41.5924 72.0597 45.0693C70.5075 45.628 66.9934 47.5279 65.3543 50.6571C63.3054 54.5685 68.8933 58.2937 70.1971 59.225C71.5009 60.1563 71.1284 61.0876 75.7849 63.509C76.2319 65.8932 81.4348 66.2408 83.9803 66.1167C84.9116 66.4271 88.5623 65.8559 95.7147 61.0876C103.761 58.1075 105.4 53.6372 105.214 51.7746C106.145 50.2845 104.991 46.4848 92.9208 43.2067Z" fill="url(#paint2_linear_205_1190)" stroke="#EE8A35"/>
<path d="M69.3777 52.5253C72.7925 56.6851 82.0806 63.4774 91.9152 57.3681C100.297 52.5253 99.5519 52.1528 101.414 51.7803" stroke="#EE8A35"/>
<defs>
<linearGradient id="paint0_linear_205_1190" x1="86.537" y1="169.228" x2="86.537" y2="197.112" gradientUnits="userSpaceOnUse">
<stop stop-color="#FEA83C"/>
<stop offset="1" stop-color="#FFE60F"/>
</linearGradient>
<linearGradient id="paint1_linear_205_1190" x1="73.4757" y1="5.02926" x2="87.4639" y2="175.907" gradientUnits="userSpaceOnUse">
<stop stop-color="#383838"/>
<stop offset="1"/>
</linearGradient>
<linearGradient id="paint2_linear_205_1190" x1="85.1862" y1="39.8594" x2="85.1862" y2="66.1861" gradientUnits="userSpaceOnUse">
<stop stop-color="#FCA643"/>
<stop offset="1" stop-color="#FFF607"/>
</linearGradient>
</defs>
</svg>
