<svg width="127" height="80" viewBox="0 0 127 80" fill="none" xmlns="http://www.w3.org/2000/svg">
<path d="M24.5231 32.3851H18.009L31.0372 78.5869L50.4588 74.0029C94.6582 78.4422 118.817 71.4295 125.371 67.3682C126.738 62.9853 127.591 49.756 120.063 31.9026C112.536 14.0492 95.4543 4.9214 87.8546 2.5892C78.6464 0.699307 57.552 -1.05387 46.8399 7.05256C35.4523 11.5883 27.2172 25.8308 24.5231 32.3851Z" fill="#6588CB"/>
<path d="M1 70.7458L7.99662 72.4347C7.31304 63.4677 7.73123 45.5339 14.8726 45.5339C22.014 45.5339 22.6734 65.9608 22.1105 76.1742L31.0372 78.5869C31.8816 71.7914 32.3159 55.1844 27.2976 43.1212C22.2794 31.0581 15.5562 31.1787 12.8219 32.747C9.8463 34.275 3.67802 38.489 2.80947 43.1212C2.03743 43.0247 1.28147 61.4974 1 70.7458Z" fill="#6588CB"/>
<path d="M13.9627 45.4283C21.1522 44.8444 22.4161 61.4051 22.2109 69.88L8.05352 72.4347C8.54595 71.0966 4.97583 46.1582 13.9627 45.4283Z" fill="#6588CB"/>
<path d="M37.4307 33.1089L18.009 32.2645C20.7433 33.3502 25.3675 37.5723 27.7802 44.4482C30.1928 51.3242 32.726 70.0221 30.9166 78.4663L49.9763 74.2442C50.2176 65.8 49.6627 47.6088 46.9605 42.3975C44.2584 37.1862 39.1195 34.4358 37.4307 33.1089Z" fill="#6588CB"/>
<path d="M80.136 62.5793C75.9714 62.6679 72.0439 62.6378 68.4348 62.5259V47.0076C75.7836 46.9862 83.7008 46.8686 91.2341 46.597C98.0078 46.3529 104.471 45.9843 109.932 45.4494C115.236 44.9299 119.594 44.2534 122.372 43.3817L123.201 57.242C121.272 57.7109 119.34 58.1429 117.411 58.5403C114.91 59.0557 112.413 59.5129 109.932 59.917C106.926 60.4065 103.944 60.8181 101.005 61.1608C97.9916 61.5122 95.0232 61.7911 92.1216 62.0074C87.969 62.3169 83.9529 62.498 80.136 62.5793Z" fill="#6588CB"/>
<path d="M49.9819 74.3224L30.8016 78.5445C33.0936 72.6335 30.8016 52.1262 27.062 42.8376C24.0703 35.4067 19.3818 32.6643 17.4115 32.222L37.3157 33.1871C39.9695 34.3934 44.9022 38.0441 47.2074 42.8376C49.3656 46.3677 50.5851 64.8729 49.9819 74.3224Z" fill="#6588CB"/>
<path d="M31.0372 78.5869L50.4588 74.0029C94.6582 78.4422 118.817 71.4295 125.371 67.3682C126.738 62.9853 127.591 49.756 120.063 31.9026C112.536 14.0492 95.4543 4.9214 87.8546 2.5892C78.6464 0.699307 57.552 -1.05387 46.8399 7.05256C35.4523 11.5883 27.2172 25.8308 24.5231 32.3851H18.009L31.0372 78.5869ZM31.0372 78.5869C31.8816 71.7914 32.3159 55.1844 27.2976 43.1212C22.2794 31.0581 15.5562 31.1787 12.8219 32.747C9.8463 34.275 3.67802 38.489 2.80947 43.1212C2.03743 43.0247 1.28147 61.4974 1 70.7458L7.99662 72.4347C7.31304 63.4677 7.73123 45.5339 14.8726 45.5339C22.014 45.5339 22.6734 65.9608 22.1105 76.1742L31.0372 78.5869ZM54.8016 3.19242C59.8388 2.58781 75.5546 1.81877 88.1237 3.26983M38.3957 12.8429C50.9888 11.2306 83.6401 8.8528 105.708 12.7223M30.6753 21.2871C43.7481 20.1182 78.6489 18.4817 113.67 21.2871M24.0406 32.3851C48.9308 31.7418 103.078 30.7204 120.063 32.2645M49.8557 60.9748C51.6242 61.246 54.5431 61.6116 57.0955 61.8473M57.0955 61.8473V74.8475M57.0955 61.8473C60.3398 62.1469 64.1644 62.3936 68.4348 62.5259M68.4348 62.5259C72.0439 62.6378 75.9714 62.6679 80.136 62.5793M68.4348 62.5259V47.0076M80.136 62.5793V75.6919M80.136 62.5793C83.9529 62.498 87.969 62.3169 92.1216 62.0074M101.005 61.1608V74.4856M101.005 61.1608C103.944 60.8181 106.926 60.4065 109.932 59.917M101.005 61.1608C97.9916 61.5122 95.0232 61.7911 92.1216 62.0074M117.411 58.5403V71.1079M117.411 58.5403C114.91 59.0557 112.413 59.5129 109.932 59.917M117.411 58.5403C119.34 58.1429 121.272 57.7109 123.201 57.242M122.372 43.3817C122.667 43.2893 123.786 42.977 124.044 42.8802M122.372 43.3817L123.201 57.242M122.372 43.3817C119.594 44.2534 115.236 44.9299 109.932 45.4494M123.201 57.242C123.885 57.0757 125.412 56.6871 126.095 56.5115M109.932 45.4494V59.917M109.932 45.4494C104.471 45.9843 98.0078 46.3529 91.2341 46.597M91.2341 46.597L92.1216 62.0074M91.2341 46.597C83.7008 46.8686 75.7836 46.9862 68.4348 47.0076M68.4348 47.0076C64.7992 47.0182 61.3026 47.0053 58.0605 46.9757M48.4081 46.7404C51.1017 46.7991 54.6855 46.945 58.0605 46.9757M58.0605 46.9757C57.2885 44.4807 58.5009 35.453 59.1443 31.5408M79.171 31.5173L80.8579 46.861M98.1101 31.5173L101.245 46.1372M113.066 31.7821L117.773 44.3043M113.068 21.3843L117.892 32.0233M101.488 20.5399L106.554 31.5173M87.0101 19.8396L89.5453 31.5173M69.5205 19.7189V31.5173M52.6302 19.9602L50.0969 31.7821M38.7576 20.684L34.5355 32.0233M51.4258 11.4925L46.1161 20.3221M39.9639 12.6017L31.8816 21.1665M63.3664 10.7922L61.0763 19.6955M76.8771 10.551L78.8072 19.7189M89.9053 10.9129L93.888 20.178M101.727 12.1192L107.156 20.9252M87.8564 3.16897L95.9369 11.3954M78.8072 2.58929L83.3912 10.6716M71.2074 2.46866L70.4836 10.6716M62.4032 2.80708L56.7336 11.01M55.7666 3.19245L45.8749 11.9985M21.8616 76.043L30.8016 78.5445M30.8016 78.5445L49.9819 74.3224C50.5851 64.8729 49.3656 46.3677 47.2074 42.8376C44.9022 38.0441 39.9695 34.3934 37.3157 33.1871L17.4115 32.222M30.8016 78.5445C33.0936 72.6335 30.8016 52.1262 27.062 42.8376C24.0703 35.4067 19.3818 32.6643 17.4115 32.222M17.4115 32.222C10.4149 31.257 3.76695 39.7329 2.81509 42.8376C1.71622 44.6788 0.925202 61.8973 1.00562 70.7034L8.12287 72.5129L22.1029 69.7701M8.00226 72.3922C7.35889 63.6665 7.54386 46.0945 13.4307 45.612C20.7892 45.0088 22.8399 56.8307 21.8748 76.1317M1.24688 63.345L7.8816 64.7925L21.9898 62.6633M22.1029 68.3226L31.7666 69.8591L50.2176 66.4029M21.741 58.9134L30.6809 60.6911L49.8481 57.8277M20.1728 51.3136L27.062 44.1646L46.8399 42.156M16.2052 45.9741L18.7328 32.7467M9.68545 34.5562L11.8568 46.2574M3.17136 42.0353L9.57044 50.0755M1.24688 55.3833L7.8816 56.7103L21.0304 54.5389M50.097 74.0029C69.1567 76.0134 110.654 77.6243 125.612 67.0087C129.11 45.1744 118.616 16.7055 92.6798 4.03917C67.685 -2.61968 51.4641 3.27517 46.478 7.05495C42.0147 9.10569 31.3026 17.0191 24.1612 32.2669M22.2109 69.88C22.4161 61.4051 21.1522 44.8444 13.9627 45.4283C4.97583 46.1582 8.54595 71.0966 8.05352 72.4347L22.2109 69.88ZM18.009 32.2645L37.4307 33.1089C39.1195 34.4358 44.2584 37.1862 46.9605 42.3975C49.6627 47.6088 50.2176 65.8 49.9763 74.2442L30.9166 78.4663C32.726 70.0221 30.1928 51.3242 27.7802 44.4482C25.3675 37.5723 20.7433 33.3502 18.009 32.2645Z" stroke="#6588CB"/>
</svg>
