<svg width="57" height="79" viewBox="0 0 57 79" fill="none" xmlns="http://www.w3.org/2000/svg">
<path d="M56.2857 49.0194C56.2857 24.7732 41.4178 0 28.1429 0C14.8679 0 0 25.5639 0 49.0194C0 72.4749 15.1334 78.8 28.1429 78.8C41.1523 78.8 56.2857 73.2656 56.2857 49.0194Z" fill="#6588CB"/>
<path d="M27.88 33.685C29.41 33.685 30.685 33.92 31.705 34.39C32.725 34.85 33.49 35.465 34 36.235C34.52 36.995 34.78 37.82 34.78 38.71C34.78 39.68 34.59 40.475 34.21 41.095C33.84 41.705 33.38 42.22 32.83 42.64C32.28 43.05 31.725 43.435 31.165 43.795C30.615 44.155 30.15 44.56 29.77 45.01C29.4 45.46 29.215 46.035 29.215 46.735V47.35H24.88V46.585C24.88 45.555 25.045 44.715 25.375 44.065C25.715 43.405 26.13 42.865 26.62 42.445C27.12 42.025 27.615 41.66 28.105 41.35C28.595 41.03 29.005 40.705 29.335 40.375C29.675 40.035 29.845 39.615 29.845 39.115C29.845 38.565 29.62 38.145 29.17 37.855C28.72 37.565 28.145 37.42 27.445 37.42C26.765 37.42 26.1 37.57 25.45 37.87C24.81 38.17 24.22 38.63 23.68 39.25L20.68 36.91C21.54 35.9 22.56 35.11 23.74 34.54C24.93 33.97 26.31 33.685 27.88 33.685ZM27.1 50.08C27.85 50.08 28.49 50.35 29.02 50.89C29.55 51.42 29.815 52.055 29.815 52.795C29.815 53.535 29.55 54.175 29.02 54.715C28.49 55.245 27.85 55.51 27.1 55.51C26.34 55.51 25.7 55.245 25.18 54.715C24.66 54.175 24.4 53.535 24.4 52.795C24.4 52.055 24.66 51.42 25.18 50.89C25.7 50.35 26.34 50.08 27.1 50.08Z" fill="white"/>
</svg>
