<svg width="203" height="204" viewBox="0 0 203 204" fill="none" xmlns="http://www.w3.org/2000/svg">
<path d="M74.7311 103.344C74.7577 102.273 74.7777 101.191 74.7928 100.107C74.5815 100.749 74.4844 101.859 74.7311 103.344Z" fill="url(#paint0_linear_1028_2145)"/>
<circle cx="101.5" cy="101.5" r="101.5" fill="url(#paint1_linear_1028_2145)"/>
<path d="M145.748 124.62C167.294 143.24 172.105 163.426 167.294 177H103.492H43.2649C13.1356 177 65.9448 119.168 68.1397 112.091C69.8128 106.696 70.3013 91.2662 69.6041 83.7254C68.8371 74.2703 74.5409 55.4993 103.492 56.0562C135.707 54.142 133.197 101.769 133.197 105.13C133.197 108.38 141.076 119.167 145.748 124.62Z" fill="url(#paint2_linear_1028_2145)"/>
<path d="M91.6871 92.0349C91.6871 94.575 90.6812 96.8788 89.2064 98.5466C87.7256 100.221 85.8131 101.212 84.0288 101.212C82.2619 101.212 80.6204 100.239 79.4025 98.5817C78.1848 96.9249 77.4165 94.6119 77.4165 92.0349C77.4165 89.458 78.1848 87.1449 79.4025 85.4881C80.6204 83.831 82.2619 82.8575 84.0288 82.8575C85.8131 82.8575 87.7256 83.8485 89.2064 85.5232C90.6812 87.191 91.6871 89.4948 91.6871 92.0349Z" fill="white" stroke="black"/>
<path d="M89.3862 94.4541C89.3862 96.0746 88.7675 97.5432 87.8635 98.604C86.9527 99.6727 85.796 100.282 84.7454 100.282C83.7131 100.282 82.7297 99.6916 81.9844 98.6394C81.2399 97.5883 80.7637 96.1101 80.7637 94.4541C80.7637 92.7981 81.2399 91.32 81.9844 90.2689C82.7297 89.2166 83.7131 88.6266 84.7454 88.6266C85.796 88.6266 86.9527 89.2355 87.8635 90.3042C88.7675 91.365 89.3862 92.8336 89.3862 94.4541Z" fill="black" stroke="black"/>
<path d="M119.509 92.2208C119.509 94.9978 118.152 97.9549 116.128 100.227C114.099 102.504 111.482 104.004 109.039 104.004C106.649 104.004 104.398 102.284 102.714 99.7259C101.039 97.1819 100.008 93.9265 100.008 91.1042C100.008 85.5293 104.754 81.1824 109.758 81.1824C112.215 81.1824 114.651 82.5099 116.486 84.5859C118.32 86.6591 119.509 89.4291 119.509 92.2208Z" fill="white" stroke="black"/>
<path d="M114.07 93.7097C114.07 95.5342 113.366 97.1882 112.335 98.3839C111.298 99.5872 109.973 100.282 108.759 100.282C107.562 100.282 106.433 99.6057 105.583 98.4192C104.733 97.2335 104.192 95.5701 104.192 93.7097C104.192 91.8494 104.733 90.186 105.583 89.0003C106.433 87.8138 107.562 87.1378 108.759 87.1378C109.973 87.1378 111.298 87.8323 112.335 89.0356C113.366 90.2313 114.07 91.8853 114.07 93.7097Z" fill="black" stroke="black"/>
<path d="M31.5001 175C28.8215 168.75 41.333 151.167 46.4997 144H161C164.167 146.167 170.5 154.8 170.5 176C103 234.5 34.5 182 31.5001 175Z" fill="#1C1C1C"/>
<path d="M64.1457 195.944C46.0215 183.399 72.6829 132.488 83.7306 115L116.5 113C136.587 131.387 144.661 174.626 146 193.946C115.367 209.935 75.6957 203.939 64.1457 195.944Z" fill="white"/>
<path d="M107.541 98.1708C97.5005 91.3222 87.7385 96.5579 84.1126 100.032C82.3694 100.59 78.4227 102.488 76.5819 105.615C74.2809 109.523 80.5564 113.245 82.0207 114.176C83.485 115.106 83.0667 116.037 88.2963 118.456C88.7984 120.838 94.6416 121.186 97.5005 121.061C98.5464 121.372 102.646 120.801 110.679 116.037C119.716 113.059 121.557 108.593 121.348 106.731C122.394 105.243 121.097 101.446 107.541 98.1708Z" fill="url(#paint3_linear_1028_2145)" stroke="#EE8A35" stroke-width="2"/>
<path d="M81.1003 107.481C84.9354 111.638 95.3668 118.424 106.412 112.32C115.825 107.481 114.988 107.109 117.08 106.737" stroke="#EE8A35" stroke-width="2"/>
<path d="M31.108 93.7155C33.7042 91.3352 43.0161 102.221 45.9932 107.325L52.798 118.383C55.3497 121.785 60.0182 130.861 61.7292 134.884L61.7613 134.959C63.4986 139.043 68.1524 149.982 58.3363 153.499L53.3642 160.525C42.5738 154.841 40.8186 142.246 38.7632 135.394C36.2114 126.888 32.8091 113.279 32.8091 112.854C32.8091 112.854 27.8627 96.6908 31.108 93.7155Z" fill="#1C1C1C"/>
<defs>
<linearGradient id="paint0_linear_1028_2145" x1="28.75" y1="80.5715" x2="48.7724" y2="136.244" gradientUnits="userSpaceOnUse">
<stop offset="0.135417" stop-color="#FF4487"/>
<stop offset="0.75" stop-color="#AC5591"/>
</linearGradient>
<linearGradient id="paint1_linear_1028_2145" x1="65.5" y1="16" x2="142.5" y2="194.5" gradientUnits="userSpaceOnUse">
<stop offset="0.1875" stop-color="#FF4487"/>
<stop offset="0.755208" stop-color="#AC5591"/>
</linearGradient>
<linearGradient id="paint2_linear_1028_2145" x1="101.412" y1="56.0001" x2="101.412" y2="220.347" gradientUnits="userSpaceOnUse">
<stop stop-color="#383838"/>
<stop offset="1"/>
</linearGradient>
<linearGradient id="paint3_linear_1028_2145" x1="98.8548" y1="94.8263" x2="98.8548" y2="121.131" gradientUnits="userSpaceOnUse">
<stop stop-color="#FCA643"/>
<stop offset="1" stop-color="#FFF607"/>
</linearGradient>
</defs>
</svg>
