<svg width="401" height="401" viewBox="0 0 401 401" fill="none" xmlns="http://www.w3.org/2000/svg">
<path d="M143.967 56.7519C175.209 25.5099 225.862 25.51 257.104 56.7519L343.967 143.615C375.209 174.857 375.208 225.51 343.967 256.752L257.104 343.615C225.862 374.857 175.209 374.857 143.967 343.615L57.1037 256.752C25.8618 225.51 25.8618 174.857 57.1038 143.615L143.967 56.7519Z" fill="#5EDA12"/>
<path d="M233.102 225.92C265.199 225.92 291.261 200.076 291.613 168.062L232.444 225.916C232.663 225.918 232.882 225.92 233.102 225.92Z" fill="white"/>
<path d="M269.91 147.022C237.813 147.022 211.751 172.865 211.398 204.879L270.567 147.025C270.348 147.023 270.13 147.022 269.91 147.022Z" fill="white"/>
<path d="M291.613 147.021H270.574V168.06H291.613V147.021Z" fill="white"/>
<rect width="21.0391" height="21.0391" transform="matrix(-1 0 0 1 232.446 204.879)" fill="white"/>
<path d="M270.574 147.021L291.613 168.06L232.441 225.917L211.402 204.878L270.574 147.021Z" fill="white"/>
<path d="M217.647 220.46V232.074C217.647 244.406 211.122 255.817 200.495 262.073L198.034 263.521" stroke="white" stroke-width="12.4859"/>
<path d="M174.465 228.116C142.695 228.116 116.9 202.536 116.551 170.848L175.116 228.112C174.899 228.114 174.683 228.116 174.465 228.116Z" fill="white"/>
<path d="M138.003 150.026C169.773 150.026 195.569 175.606 195.918 207.293L137.353 150.03C137.569 150.027 137.786 150.026 138.003 150.026Z" fill="white"/>
<path d="M116.536 150.025H137.361V170.849H116.536V150.025Z" fill="white"/>
<rect x="175.109" y="207.293" width="20.8245" height="20.8245" fill="white"/>
<path d="M137.36 150.025L116.535 170.85L175.104 228.117L195.929 207.293L137.36 150.025Z" fill="white"/>
<path fill-rule="evenodd" clip-rule="evenodd" d="M175.336 209.87C173.476 211.73 170.462 211.73 168.602 209.87L138.129 179.398C136.27 177.538 136.27 174.523 138.129 172.664C139.989 170.804 143.003 170.804 144.863 172.664L175.336 203.137C177.195 204.996 177.195 208.011 175.336 209.87Z" fill="#5EDA12"/>
<path fill-rule="evenodd" clip-rule="evenodd" d="M233.097 206.87C234.956 208.73 237.971 208.73 239.83 206.87L270.303 176.397C272.163 174.538 272.163 171.523 270.303 169.664C268.444 167.804 265.429 167.804 263.57 169.664L233.097 200.137C231.237 201.996 231.237 205.011 233.097 206.87Z" fill="#5EDA12"/>
<path fill-rule="evenodd" clip-rule="evenodd" d="M183.535 280.593C188.822 280.593 193.108 276.308 193.108 271.021C193.108 265.734 188.822 261.448 183.535 261.448C178.248 261.448 173.963 265.734 173.963 271.021C173.963 276.308 178.248 280.593 183.535 280.593ZM183.535 292.021C195.133 292.021 204.535 282.619 204.535 271.021C204.535 259.423 195.133 250.021 183.535 250.021C171.937 250.021 162.535 259.423 162.535 271.021C162.535 282.619 171.937 292.021 183.535 292.021Z" fill="white"/>
<path d="M210.535 239.021C205.035 251.021 195.935 250.021 183.535 250.021L207.535 263.021L210.535 239.021Z" fill="white"/>
<path d="M215.535 257.021C212.702 260.521 206.535 268.021 203.535 277.521L197.535 258.021L215.535 257.021Z" fill="white"/>
</svg>
